<svg xmlns="http://www.w3.org/2000/svg" viewBox="0 0 400 470">
<g transform="translate(0,0)">
  <path d="M128,272 C128,196 160,158 200,158 C240,158 272,196 272,272 Z" fill="#F7EEDD" stroke="#1E4636" stroke-width="8"/>
  <path d="M200,161 Q186,177 182,201" fill="none" stroke="#1E4636" stroke-width="4.5" stroke-linecap="round"/>
  <path d="M200,161 Q214,177 218,201" fill="none" stroke="#1E4636" stroke-width="4.5" stroke-linecap="round"/>
  <circle cx="176" cy="226" r="6.5" fill="#1E4636"/>
  <circle cx="224" cy="226" r="6.5" fill="#1E4636"/>
  <path d="M184,246 Q200,260 216,246" fill="none" stroke="#1E4636" stroke-width="5.5" stroke-linecap="round"/>
  <ellipse cx="155" cy="242" rx="8" ry="5.5" fill="#C62828" opacity=".75"/>
  <ellipse cx="245" cy="242" rx="8" ry="5.5" fill="#C62828" opacity=".75"/>
  <path d="M272,234 Q296,224 304,202" fill="none" stroke="#1E4636" stroke-width="13" stroke-linecap="round"/>
  <path d="M272,234 Q296,224 304,202" fill="none" stroke="#F7EEDD" stroke-width="7" stroke-linecap="round"/>
  <g transform="rotate(-8,200,152)">
    <path d="M150,150 a24,24 0 0 1 20,-34 a26,26 0 0 1 60,0 a24,24 0 0 1 20,34 Z" fill="#F7EEDD" stroke="#1E4636" stroke-width="7" stroke-linejoin="round"/>
    <rect x="150" y="146" width="100" height="17" rx="8" fill="#1E4636"/>
  </g>
</g>
<g transform="translate(48.80,378) scale(0.58654)" fill="#1E4636"><path transform="translate(0.00,0) scale(0.048828,-0.048828)" d="M496 -16Q255 -16 148.5 104.0Q42 224 42 486V658H390V438Q390 377 408.5 342.5Q427 308 473 308Q521 308 539.5 336.0Q558 364 558 428Q558 509 542.0 563.5Q526 618 486.5 667.5Q447 717 377 783L219 933Q42 1100 42 1315Q42 1540 146.5 1658.0Q251 1776 449 1776Q691 1776 792.5 1647.0Q894 1518 894 1255H536V1376Q536 1412 515.5 1432.0Q495 1452 460 1452Q418 1452 398.5 1428.5Q379 1405 379 1368Q379 1331 399.0 1288.0Q419 1245 478 1189L681 994Q742 936 793.0 871.5Q844 807 875.0 721.5Q906 636 906 513Q906 265 814.5 124.5Q723 -16 496 -16Z"/><path transform="translate(46.14,0) scale(0.048828,-0.048828)" d="M229 0V1422H20V1760H790V1422H581V0Z"/><path transform="translate(85.69,0) scale(0.048828,-0.048828)" d="M78 0V1760H782V1420H436V1077H768V746H436V343H805V0Z"/><path transform="translate(126.86,0) scale(0.048828,-0.048828)" d="M30 0 200 1760H797L964 0H631L606 284H394L372 0ZM419 565H579L502 1460H486Z"/><path transform="translate(175.39,0) scale(0.048828,-0.048828)" d="M78 0V1760H614L762 687L909 1760H1450V0H1128V1268L926 0H610L396 1268V0Z"/><path transform="translate(250.00,0) scale(0.048828,-0.048828)" d="M291 0V579L10 1760H359L457 1164L555 1760H903L623 579V0Z"/><path transform="translate(318.07,0) scale(0.048828,-0.048828)" d="M78 0V1760H555Q747 1760 834.5 1666.5Q922 1573 922 1358V1281Q922 1157 877.5 1080.0Q833 1003 742 979Q861 949 901.5 838.5Q942 728 942 569Q942 398 910.0 270.0Q878 142 794.0 71.0Q710 0 555 0ZM422 1097H494Q543 1097 557.0 1135.0Q571 1173 571 1226V1403Q571 1488 496 1488H422ZM457 310Q594 310 594 440V660Q594 735 571.5 778.5Q549 822 487 822H422V312Q444 310 457 310Z"/><path transform="translate(365.92,0) scale(0.048828,-0.048828)" d="M62 0V1760H402V0Z"/><path transform="translate(388.57,0) scale(0.048828,-0.048828)" d="M229 0V1422H20V1760H790V1422H581V0Z"/><path transform="translate(428.12,0) scale(0.048828,-0.048828)" d="M78 0V1760H782V1420H436V1077H768V746H436V343H805V0Z"/><path transform="translate(469.29,0) scale(0.048828,-0.048828)" d="M496 -16Q255 -16 148.5 104.0Q42 224 42 486V658H390V438Q390 377 408.5 342.5Q427 308 473 308Q521 308 539.5 336.0Q558 364 558 428Q558 509 542.0 563.5Q526 618 486.5 667.5Q447 717 377 783L219 933Q42 1100 42 1315Q42 1540 146.5 1658.0Q251 1776 449 1776Q691 1776 792.5 1647.0Q894 1518 894 1255H536V1376Q536 1412 515.5 1432.0Q495 1452 460 1452Q418 1452 398.5 1428.5Q379 1405 379 1368Q379 1331 399.0 1288.0Q419 1245 478 1189L681 994Q742 936 793.0 871.5Q844 807 875.0 721.5Q906 636 906 513Q906 265 814.5 124.5Q723 -16 496 -16Z"/></g>
<g transform="translate(116.67,404)" fill="#D9A441"><path transform="translate(0.00,0) scale(0.008789,-0.008789)" d="M1086 534Q1086 514 1084.5 493.5Q1083 473 1078 453Q1074 436 1067.5 421.5Q1061 407 1059 390Q1057 380 1055.0 368.5Q1053 357 1040 357L1032 358Q1016 358 1008.0 345.5Q1000 333 995.5 315.5Q991 298 988.5 280.0Q986 262 983 251Q980 240 979.5 231.5Q979 223 978.5 216.5Q978 210 974.0 203.0Q970 196 960 188Q944 176 929.0 165.0Q914 154 902 139Q893 128 890.0 120.0Q887 112 884.0 105.0Q881 98 874.5 92.5Q868 87 853 82Q830 74 809.0 64.0Q788 54 766 46Q740 36 717.0 23.5Q694 11 670.0 0.0Q646 -11 620.5 -18.5Q595 -26 566 -26Q540 -26 514.5 -18.0Q489 -10 467 4Q446 6 435.0 19.0Q424 32 417 50Q411 64 405.5 70.0Q400 76 393.5 78.5Q387 81 379.0 83.0Q371 85 360 92Q315 121 278.0 164.5Q241 208 209 252Q202 262 198.5 275.5Q195 289 192.0 302.5Q189 316 185.5 328.5Q182 341 175 348Q162 361 152.0 362.0Q142 363 135.5 366.5Q129 370 125.5 383.5Q122 397 122 434Q122 457 118.0 482.0Q114 507 108.5 533.5Q103 560 99.0 587.5Q95 615 95 642Q95 671 98.5 700.0Q102 729 107.0 758.0Q112 787 117.0 815.5Q122 844 124 873Q126 900 126.5 928.0Q127 956 128.5 984.0Q130 1012 134.0 1039.0Q138 1066 148 1092Q158 1120 173.5 1145.0Q189 1170 204.0 1195.0Q219 1220 232.0 1246.0Q245 1272 252 1302Q256 1321 277.0 1337.5Q298 1354 329.0 1368.5Q360 1383 396.5 1394.5Q433 1406 469.0 1414.5Q505 1423 535.5 1427.5Q566 1432 585 1432Q635 1432 679.0 1419.5Q723 1407 768 1387Q788 1378 811.5 1372.5Q835 1367 856 1367Q877 1367 887.5 1374.5Q898 1382 904.0 1392.5Q910 1403 914.0 1412.5Q918 1422 926 1427L923 1426Q925 1428 930.0 1428.5Q935 1429 941 1429Q949 1428 960.5 1425.0Q972 1422 984.0 1418.0Q996 1414 1006.5 1409.5Q1017 1405 1022 1401Q1025 1399 1032.0 1388.0Q1039 1377 1046.5 1364.0Q1054 1351 1059.5 1340.0Q1065 1329 1065 1326Q1065 1301 1072.5 1279.0Q1080 1257 1080 1232Q1080 1206 1072.5 1181.0Q1065 1156 1065 1130Q1065 1098 1066.5 1067.5Q1068 1037 1068 1005Q1068 976 1065.5 947.5Q1063 919 1057 891Q1055 883 1053.0 872.0Q1051 861 1047.5 851.0Q1044 841 1038.5 834.0Q1033 827 1024 827Q1015 827 1008 830Q1003 829 999.0 828.5Q995 828 990 828Q981 828 979.0 831.0Q977 834 977.0 838.5Q977 843 975.5 848.5Q974 854 965 859Q959 863 949.0 864.0Q939 865 929.5 866.5Q920 868 913.0 872.5Q906 877 906 887Q906 898 910.5 898.5Q915 899 921.5 895.0Q928 891 936.0 887.5Q944 884 951 887Q937 903 926.5 920.5Q916 938 905.5 956.0Q895 974 884.0 992.0Q873 1010 859 1025Q847 1038 839.0 1055.0Q831 1072 823.5 1089.5Q816 1107 807.5 1122.5Q799 1138 786 1148Q740 1183 684.5 1209.5Q629 1236 569 1236Q527 1236 491.5 1223.5Q456 1211 421 1190Q407 1182 394.5 1176.0Q382 1170 370.5 1162.5Q359 1155 350.5 1144.5Q342 1134 338 1116Q333 1098 333.5 1079.0Q334 1060 324 1044Q319 1036 308.5 1031.0Q298 1026 295 1016Q287 993 285.5 968.0Q284 943 283.5 917.0Q283 891 282.0 864.5Q281 838 274 814Q268 794 265.5 774.0Q263 754 263 734Q263 696 265.5 659.5Q268 623 268 586Q268 541 272.5 498.0Q277 455 289 412Q298 380 314.0 350.5Q330 321 338 289Q342 272 352.5 253.0Q363 234 377.5 218.0Q392 202 410.0 191.5Q428 181 447 181Q461 181 474.0 184.5Q487 188 501 188Q516 188 531.0 185.5Q546 183 561 183Q588 183 617.5 190.0Q647 197 667 218Q681 233 699.0 239.0Q717 245 735.5 249.0Q754 253 771.0 259.5Q788 266 801 283Q809 294 817.5 317.0Q826 340 835.0 365.0Q844 390 853.5 410.5Q863 431 873 436Q882 441 884.5 461.5Q887 482 887 510V556Q887 576 888.0 595.0Q889 614 892.5 629.0Q896 644 903.0 653.0Q910 662 922 662Q933 662 939.5 654.5Q946 647 956 647Q966 647 975.5 653.5Q985 660 996 660Q1011 660 1023.5 647.0Q1036 634 1046.5 618.0Q1057 602 1063.5 588.5Q1070 575 1073 574Q1083 572 1084.5 557.5Q1086 543 1086 534Z"/><path transform="translate(15.42,0) scale(0.008789,-0.008789)" d="M1126 71Q1126 60 1120.0 49.5Q1114 39 1105.0 30.5Q1096 22 1085.0 16.5Q1074 11 1064 11Q1057 11 1050.0 12.0Q1043 13 1036 13Q1027 13 1024.0 7.5Q1021 2 1018.5 -4.0Q1016 -10 1011.0 -15.5Q1006 -21 993 -21Q985 -21 976.0 -19.0Q967 -17 958 -17Q939 -17 921.5 -24.5Q904 -32 884 -32Q867 -32 833.0 -26.5Q799 -21 764.5 -9.5Q730 2 704.0 18.5Q678 35 678 57Q678 74 697.5 91.5Q717 109 741.0 130.5Q765 152 784.5 179.0Q804 206 804 242Q804 263 795.5 283.0Q787 303 774.0 320.5Q761 338 744.5 353.0Q728 368 713 381Q708 383 698 383Q671 383 644.0 377.5Q617 372 590 372Q576 372 561.5 376.0Q547 380 542 396Q516 383 490.0 371.5Q464 360 437 351Q420 345 412.5 342.0Q405 339 401.5 335.0Q398 331 396.5 323.0Q395 315 389 300Q385 290 385.0 282.0Q385 274 385 264Q385 251 380.0 243.5Q375 236 369.5 229.5Q364 223 359.0 216.0Q354 209 354 198Q354 189 357 182L356 177Q356 162 364.0 153.5Q372 145 383.5 140.5Q395 136 408.0 132.0Q421 128 431 122Q441 116 450.5 102.5Q460 89 467.5 73.5Q475 58 480.0 42.5Q485 27 485 16V11H472Q432 11 392.5 7.5Q353 4 314.0 -0.5Q275 -5 235.5 -8.5Q196 -12 156 -12Q142 -12 115.5 -11.0Q89 -10 63.0 -5.5Q37 -1 17.5 9.5Q-2 20 -2 40Q-2 61 7.5 75.0Q17 89 32.5 98.5Q48 108 67.5 114.5Q87 121 106.5 127.0Q126 133 143.5 139.0Q161 145 173 155Q185 165 193.0 187.5Q201 210 206.0 236.0Q211 262 215.0 287.5Q219 313 222 328Q223 333 223.5 340.5Q224 348 224.5 356.0Q225 364 225.5 371.0Q226 378 228 381Q238 398 243.5 401.0Q249 404 251.5 406.0Q254 408 254.5 416.5Q255 425 255 452Q255 464 260.0 470.5Q265 477 270.5 482.0Q276 487 281.0 491.5Q286 496 286 504Q286 518 278.0 529.5Q270 541 270 555Q270 563 274.0 569.0Q278 575 283.5 580.0Q289 585 293.0 590.5Q297 596 297 604Q297 615 292.5 626.0Q288 637 288 648Q288 656 293.5 659.5Q299 663 305.5 665.0Q312 667 317.5 668.5Q323 670 323 673Q320 679 312 679Q300 679 300 666Q293 671 288.0 677.5Q283 684 283 692Q283 702 288.0 710.5Q293 719 299.5 730.0Q306 741 311.0 755.0Q316 769 316 789Q316 810 310.0 829.5Q304 849 304 869Q304 879 308.5 889.0Q313 899 319.5 908.5Q326 918 332.5 927.5Q339 937 342 948Q348 967 348.5 988.0Q349 1009 349.5 1030.0Q350 1051 352.5 1071.5Q355 1092 365 1110Q374 1126 379.0 1136.0Q384 1146 388.0 1155.5Q392 1165 395.0 1176.5Q398 1188 401 1207Q406 1236 416.5 1263.0Q427 1290 431 1319Q433 1341 433.5 1356.5Q434 1372 438.5 1384.0Q443 1396 454.5 1405.0Q466 1414 490 1423Q516 1432 542.0 1435.5Q568 1439 594 1439Q624 1439 656 1436Q659 1419 669.0 1405.5Q679 1392 690.5 1379.0Q702 1366 712.5 1352.5Q723 1339 727 1322Q732 1299 733.5 1278.5Q735 1258 750 1238Q757 1227 757 1212Q757 1189 751.0 1168.0Q745 1147 745 1125Q745 1112 753.0 1082.0Q761 1052 772.0 1017.5Q783 983 793.0 950.5Q803 918 808 900Q817 862 817.5 822.0Q818 782 830 744Q842 704 851.0 664.5Q860 625 863 583Q865 544 873.0 507.5Q881 471 890.0 434.5Q899 398 906.5 361.0Q914 324 914 284Q914 269 911.5 253.0Q909 237 898 225Q919 200 945.5 171.0Q972 142 998 125Q1008 119 1029.0 116.0Q1050 113 1071.5 108.5Q1093 104 1109.5 95.5Q1126 87 1126 71ZM707 610Q707 619 700.0 633.5Q693 648 684.5 666.0Q676 684 669.0 705.0Q662 726 662 749Q662 776 654.0 802.5Q646 829 643 856Q641 878 638.5 904.5Q636 931 628.0 954.5Q620 978 603.5 993.5Q587 1009 556 1009Q554 1001 549.0 997.5Q544 994 537.5 991.5Q531 989 524.0 987.0Q517 985 513 980Q514 977 514 971Q514 953 506.5 937.5Q499 922 493 906Q486 889 483.5 870.5Q481 852 481 834Q481 818 482.0 803.0Q483 788 483 773Q483 750 479.0 733.5Q475 717 470.0 703.0Q465 689 461.0 676.5Q457 664 457 650Q457 620 459.0 598.0Q461 576 468.0 561.5Q475 547 488.0 539.5Q501 532 524 532Q540 532 570.5 536.0Q601 540 631.5 549.5Q662 559 684.5 574.0Q707 589 707 610Z"/><path transform="translate(30.32,0) scale(0.008789,-0.008789)" d="M1218 1037Q1218 994 1193.5 970.0Q1169 946 1127 946Q1113 946 1100.0 948.5Q1087 951 1074 955Q1057 978 1049.5 1010.5Q1042 1043 1036.5 1077.5Q1031 1112 1024.0 1145.5Q1017 1179 1002.5 1205.5Q988 1232 962.5 1248.5Q937 1265 894 1265Q867 1265 840.5 1259.5Q814 1254 786 1254Q772 1254 753.0 1254.5Q734 1255 714.5 1257.5Q695 1260 677.0 1264.0Q659 1268 647 1276Q644 1278 637.5 1279.0Q631 1280 623.5 1280.5Q616 1281 608.5 1281.0Q601 1281 598 1281Q568 1281 550.5 1278.0Q533 1275 519.5 1270.0Q506 1265 491.5 1258.5Q477 1252 451 1245Q432 1240 423.5 1233.0Q415 1226 412.0 1216.5Q409 1207 409.5 1194.0Q410 1181 409 1164Q408 1152 407.5 1140.5Q407 1129 407 1117Q407 1081 409.0 1045.0Q411 1009 411 972Q411 949 406.5 927.0Q402 905 402 882Q402 861 411.0 853.0Q420 845 431.0 841.0Q442 837 451.5 832.0Q461 827 461 812Q468 811 474.5 810.5Q481 810 488 810Q521 810 554.0 819.5Q587 829 619 837Q639 842 648.0 866.0Q657 890 660.0 920.5Q663 951 663.0 981.0Q663 1011 666 1027Q668 1040 675.5 1052.0Q683 1064 694.0 1073.0Q705 1082 718.0 1087.5Q731 1093 744 1093Q758 1093 769 1087Q791 1076 800.5 1059.5Q810 1043 813.0 1023.0Q816 1003 815.5 982.0Q815 961 817 941Q820 914 820 888Q820 840 815.5 794.0Q811 748 811 700Q811 674 814.0 649.0Q817 624 825 599Q830 581 830 566Q830 549 826.5 533.0Q823 517 823 500Q823 490 824.5 481.5Q826 473 826 463Q826 448 818.5 431.5Q811 415 800.0 401.5Q789 388 774.5 379.0Q760 370 747 370Q729 370 713.5 384.5Q698 399 686.0 417.0Q674 435 667.5 451.0Q661 467 661 470Q661 475 665.5 477.5Q670 480 675.0 482.5Q680 485 684.5 488.5Q689 492 689 499Q689 504 684.5 506.5Q680 509 674.5 511.5Q669 514 664.5 518.5Q660 523 660 532Q660 539 662.0 542.5Q664 546 667.0 548.0Q670 550 672.0 552.0Q674 554 674 557Q674 565 667.0 577.5Q660 590 649.5 602.0Q639 614 626.5 622.5Q614 631 604 631Q589 631 574.5 625.5Q560 620 544 620Q531 620 519.5 625.0Q508 630 497 630Q487 630 475.0 621.5Q463 613 451.5 601.5Q440 590 429.5 578.5Q419 567 413 560Q405 552 404.0 536.5Q403 521 403 510Q403 475 407.5 441.5Q412 408 412 373Q412 358 411.5 343.0Q411 328 411 313Q411 301 411.5 282.0Q412 263 416.0 244.0Q420 225 428.0 210.0Q436 195 450 191Q471 184 497 186H517Q543 186 566.0 181.0Q589 176 601 155Q611 138 615.5 117.5Q620 97 620 77Q620 65 617.5 50.0Q615 35 608.5 22.5Q602 10 591.5 1.5Q581 -7 566 -7Q537 -7 504.5 -0.5Q472 6 440 6Q415 6 391 0Q352 -11 313.0 -14.0Q274 -17 232 -17Q213 -17 187.0 -16.0Q161 -15 137.5 -9.5Q114 -4 97.5 6.5Q81 17 81 36Q81 57 84.0 81.0Q87 105 96.5 125.0Q106 145 123.0 158.0Q140 171 168 171Q176 171 185.0 170.0Q194 169 203 169Q222 169 231.0 175.5Q240 182 246.0 190.0Q252 198 258.0 205.0Q264 212 276 214Q274 246 270.5 276.5Q267 307 267 339Q267 366 272.0 392.0Q277 418 290 442Q280 453 275.0 480.0Q270 507 268.5 535.0Q267 563 267.0 583.5Q267 604 267 603Q267 620 272.5 636.5Q278 653 278 670Q278 678 276.5 684.5Q275 691 275 699Q275 711 277.0 716.0Q279 721 282.0 723.0Q285 725 287.0 727.5Q289 730 289 738Q289 763 282.5 787.5Q276 812 276 838Q276 861 280.5 883.5Q285 906 285 929Q285 974 280.5 1018.5Q276 1063 276 1109Q276 1132 272.0 1160.5Q268 1189 257.0 1214.0Q246 1239 227.0 1256.0Q208 1273 179 1273Q165 1273 151.5 1271.5Q138 1270 124 1270Q111 1270 99.0 1272.5Q87 1275 76 1283Q74 1302 67.0 1320.0Q60 1338 60 1357Q60 1371 71.5 1380.0Q83 1389 101.0 1394.0Q119 1399 141.5 1401.0Q164 1403 187 1403Q216 1403 241.5 1401.5Q267 1400 280 1400Q294 1400 314.5 1401.0Q335 1402 355.5 1405.5Q376 1409 393.0 1417.0Q410 1425 418 1440Q430 1440 439.0 1435.5Q448 1431 457.0 1425.5Q466 1420 475.0 1415.5Q484 1411 495 1411Q509 1411 521.5 1417.5Q534 1424 548 1424Q561 1424 571.0 1418.5Q581 1413 594 1413Q621 1413 647.5 1419.0Q674 1425 701.0 1431.5Q728 1438 754.5 1444.0Q781 1450 808 1450Q827 1450 843.5 1444.5Q860 1439 874 1425Q915 1442 964 1442Q970 1442 990.0 1440.0Q1010 1438 1032.0 1435.5Q1054 1433 1072.0 1430.0Q1090 1427 1092 1424Q1098 1419 1101.0 1407.0Q1104 1395 1106.5 1381.5Q1109 1368 1112.0 1355.5Q1115 1343 1121 1337Q1125 1333 1131.5 1331.5Q1138 1330 1144.0 1328.0Q1150 1326 1154.5 1322.5Q1159 1319 1160 1311Q1162 1287 1163.0 1264.5Q1164 1242 1171 1218Q1177 1197 1185.0 1174.0Q1193 1151 1200.5 1128.0Q1208 1105 1213.0 1082.0Q1218 1059 1218 1037ZM163 72Q163 88 156.5 100.0Q150 112 133 114Q133 110 132.5 106.5Q132 103 132 99Q132 83 138.5 71.0Q145 59 162 57Q162 61 162.5 64.5Q163 68 163 72Z"/><path transform="translate(46.22,0) scale(0.008789,-0.008789)" d="M1202 998Q1202 994 1197.0 982.0Q1192 970 1185.5 956.0Q1179 942 1172.0 930.0Q1165 918 1161 914L1163 913Q1161 913 1159 912H1154Q1150 911 1145.5 911.0Q1141 911 1136 911L1140 912Q1117 913 1098.5 920.5Q1080 928 1068 949Q1066 953 1062.0 963.5Q1058 974 1054.0 986.0Q1050 998 1047.5 1008.5Q1045 1019 1045 1024Q1045 1032 1046.5 1041.0Q1048 1050 1048 1058Q1048 1089 1042.0 1119.0Q1036 1149 1036 1180Q1036 1200 1041.0 1219.0Q1046 1238 1059 1254H1054Q1042 1254 1035.0 1261.5Q1028 1269 1012 1269Q974 1269 938.0 1260.0Q902 1251 862 1251Q846 1251 830.0 1251.5Q814 1252 797 1252Q766 1252 736.0 1245.0Q706 1238 678 1238Q675 1238 675 1239Q675 1241 682.0 1244.5Q689 1248 689 1250Q689 1254 682.5 1254.0Q676 1254 674 1254Q666 1254 660.5 1246.0Q655 1238 644 1235Q629 1231 612.0 1231.0Q595 1231 579 1231Q569 1231 550.0 1232.0Q531 1233 512.0 1236.5Q493 1240 477.5 1247.5Q462 1255 460 1269Q449 1266 445.5 1258.5Q442 1251 439.5 1243.0Q437 1235 432.0 1228.5Q427 1222 412 1221Q384 1219 376.0 1203.0Q368 1187 368 1167Q368 1156 369.0 1145.0Q370 1134 370 1123Q370 1083 368.5 1043.5Q367 1004 367 964Q367 947 367.5 918.5Q368 890 371.5 862.5Q375 835 382.0 813.5Q389 792 402 789Q410 787 419.0 786.5Q428 786 437 786Q472 786 505.5 794.0Q539 802 574 802Q588 802 600.5 798.0Q613 794 626 794Q645 794 655.5 812.5Q666 831 670.5 855.5Q675 880 676.0 905.0Q677 930 677 942Q677 967 675.5 991.5Q674 1016 674 1041H680Q705 1041 727.0 1033.0Q749 1025 773 1025Q783 1025 788 1026Q788 1006 795.0 986.0Q802 966 802 945Q802 919 774 912Q782 898 787.0 884.0Q792 870 792 855Q792 844 790.0 833.5Q788 823 788 812Q788 802 794.5 796.5Q801 791 801 784Q801 772 791.5 754.0Q782 736 782 717Q782 695 786.0 671.0Q790 647 795.0 621.0Q800 595 804.0 568.5Q808 542 808 515Q808 499 806.5 482.0Q805 465 799.5 449.5Q794 434 784.5 421.0Q775 408 760 399Q741 401 728.0 410.5Q715 420 706.5 433.5Q698 447 693.5 463.5Q689 480 687 497Q683 523 683.0 545.0Q683 567 673.5 582.5Q664 598 637.5 607.0Q611 616 555 616Q539 616 509.5 613.0Q480 610 451.0 602.5Q422 595 400.5 581.0Q379 567 379 546Q379 534 381.5 522.5Q384 511 384 499Q384 489 383.0 479.0Q382 469 382 458Q382 431 385.0 404.5Q388 378 388 351Q388 322 380.5 294.0Q373 266 373 237Q373 205 388.5 186.5Q404 168 428.0 158.5Q452 149 480.0 146.0Q508 143 532 143Q580 143 628.0 149.0Q676 155 724 155Q754 155 784.0 152.0Q814 149 844 149Q867 149 895.0 150.5Q923 152 948.5 160.0Q974 168 992.5 183.5Q1011 199 1016 228Q1017 236 1021.5 239.5Q1026 243 1031.5 245.5Q1037 248 1041.0 251.0Q1045 254 1045 261Q1045 269 1039.0 279.5Q1033 290 1031 299Q1027 318 1026.5 337.5Q1026 357 1026 376Q1026 406 1035.5 428.5Q1045 451 1045 478Q1045 486 1044.5 493.0Q1044 500 1044 508Q1044 514 1053.0 520.0Q1062 526 1074.0 530.5Q1086 535 1098.0 538.0Q1110 541 1116 541Q1141 541 1157.0 523.5Q1173 506 1181.5 481.0Q1190 456 1193.0 429.0Q1196 402 1196 383Q1196 352 1191.0 313.0Q1186 274 1177.5 233.0Q1169 192 1158.0 153.5Q1147 115 1136 86Q1130 72 1124.5 65.0Q1119 58 1112.5 53.5Q1106 49 1098.5 44.5Q1091 40 1082 30Q1074 21 1051.5 18.0Q1029 15 1004 15Q985 15 968.0 16.0Q951 17 942 17Q909 17 888.5 9.0Q868 1 850 1Q837 1 833.0 6.5Q829 12 821 12Q814 12 808.0 6.0Q802 0 790 0Q778 0 765.5 0.5Q753 1 740 1Q665 1 591.0 -3.5Q517 -8 442 -10Q391 -12 341.0 -22.0Q291 -32 240 -32Q222 -32 199.0 -28.5Q176 -25 155.5 -16.0Q135 -7 121.0 8.5Q107 24 107 47Q107 69 123.0 89.0Q139 109 161.5 126.0Q184 143 208.0 157.5Q232 172 247 185Q246 193 246.0 200.0Q246 207 246 214Q246 229 246.5 244.0Q247 259 252 274Q254 283 262.5 295.5Q271 308 271 317Q271 324 268.5 330.0Q266 336 264 343Q253 370 248.5 391.0Q244 412 244 442Q244 460 244.5 473.5Q245 487 246.5 499.5Q248 512 251.5 525.5Q255 539 261 556Q257 563 252.0 577.0Q247 591 247 599L261 741Q260 744 260 751Q260 760 263.0 769.0Q266 778 266 788Q266 811 258.0 833.5Q250 856 250 879Q250 887 254.0 898.0Q258 909 262.5 922.0Q267 935 271.0 950.5Q275 966 275 984Q275 998 268.5 1008.0Q262 1018 262 1031Q262 1043 268.0 1055.0Q274 1067 274 1081Q274 1101 266.5 1119.5Q259 1138 251 1155Q239 1180 232.5 1195.5Q226 1211 217.0 1220.5Q208 1230 192.5 1234.5Q177 1239 148 1241Q134 1242 121.5 1249.5Q109 1257 99.5 1269.0Q90 1281 84.0 1295.0Q78 1309 78 1322Q78 1340 94.0 1352.5Q110 1365 135.0 1372.5Q160 1380 191.0 1384.5Q222 1389 251.5 1391.5Q281 1394 305.5 1395.0Q330 1396 343 1398Q363 1401 382.0 1402.0Q401 1403 421 1403Q460 1403 499.5 1400.5Q539 1398 578 1398Q620 1398 660.5 1406.0Q701 1414 743 1414Q781 1414 818.0 1405.5Q855 1397 891 1397Q926 1397 960.0 1405.5Q994 1414 1029 1414Q1044 1414 1059 1411Q1081 1387 1099.5 1371.0Q1118 1355 1131.5 1338.5Q1145 1322 1153.5 1300.0Q1162 1278 1165 1242Q1166 1229 1166.0 1210.5Q1166 1192 1167.0 1174.5Q1168 1157 1172.5 1143.0Q1177 1129 1187 1126Q1187 1112 1173 1112Q1174 1098 1179.0 1083.5Q1184 1069 1189.0 1054.5Q1194 1040 1198.0 1025.5Q1202 1011 1202 998ZM336 752Q330 752 325.0 750.0Q320 748 318 741Q356 719 378.5 699.5Q401 680 413.5 668.0Q426 656 432.0 654.5Q438 653 444 667Q452 685 441.5 701.0Q431 717 412.5 728.0Q394 739 372.5 745.5Q351 752 336 752Z"/><path transform="translate(72.99,0) scale(0.008789,-0.008789)" d="M349 729Q349 714 342.0 704.0Q335 694 325.5 685.5Q316 677 305.0 669.5Q294 662 286 653Q274 639 264.5 626.5Q255 614 232 614Q218 614 201.0 622.0Q184 630 168.5 642.5Q153 655 142.5 669.5Q132 684 132 698Q132 708 137.0 714.5Q142 721 142 729Q142 742 144.0 749.0Q146 756 148.5 761.0Q151 766 154.0 771.5Q157 777 159 786Q161 796 159.5 804.5Q158 813 163 821Q171 837 190.0 841.5Q209 846 224 846Q237 846 259.5 842.5Q282 839 292 831Q297 826 299.0 821.0Q301 816 304 811Q309 806 315.5 803.0Q322 800 327 795Q336 785 342.5 764.0Q349 743 349 729Z"/><path transform="translate(92.45,0) scale(0.008789,-0.008789)" d="M1185 643Q1185 613 1179.0 573.5Q1173 534 1162.5 490.5Q1152 447 1138.5 401.0Q1125 355 1110.0 312.5Q1095 270 1079.5 233.5Q1064 197 1050 172Q1044 162 1031.5 151.5Q1019 141 1006.0 129.5Q993 118 983.0 107.0Q973 96 973 86Q965 85 948.0 81.5Q931 78 912.5 72.5Q894 67 878.5 60.5Q863 54 860 48Q849 27 846.5 20.0Q844 13 841.0 11.5Q838 10 829.5 10.5Q821 11 797 6Q788 4 774.5 0.0Q761 -4 746.5 -8.0Q732 -12 719.0 -14.5Q706 -17 698 -17Q676 -17 655.5 -10.0Q635 -3 613 -3Q599 -3 588 -7Q551 -21 517.5 -27.0Q484 -33 444 -33L303 -14Q287 -18 271.0 -19.5Q255 -21 239 -21Q219 -21 199.5 -19.0Q180 -17 160 -14Q157 1 150.5 14.5Q144 28 138.0 42.0Q132 56 127.0 70.5Q122 85 122 100Q122 126 135.0 137.5Q148 149 168.0 153.5Q188 158 210.5 160.5Q233 163 253.0 172.0Q273 181 286.0 200.0Q299 219 299 257Q299 280 295.5 303.0Q292 326 287.5 349.5Q283 373 279.5 396.0Q276 419 276 442Q276 459 279.0 475.5Q282 492 282 509Q282 540 277.5 570.5Q273 601 273 632Q273 668 277.0 703.5Q281 739 281 775Q281 809 274.5 841.5Q268 874 268 909Q268 928 269.0 947.0Q270 966 270 985Q270 1007 268.0 1027.5Q266 1048 260 1069Q253 1094 252.0 1118.0Q251 1142 246.0 1161.5Q241 1181 227.0 1195.5Q213 1210 180 1217Q169 1219 163.5 1223.5Q158 1228 153.0 1232.5Q148 1237 140.5 1241.0Q133 1245 118 1247Q74 1253 74 1296Q74 1320 83.0 1338.5Q92 1357 106.0 1372.0Q120 1387 137.5 1399.5Q155 1412 172 1425Q198 1445 221.0 1449.5Q244 1454 270 1454H313Q342 1454 370.5 1456.5Q399 1459 428 1459Q445 1459 462.5 1457.0Q480 1455 497 1450Q506 1447 514.5 1443.5Q523 1440 532 1440Q546 1440 556.0 1448.5Q566 1457 574 1457Q576 1457 576 1455Q576 1453 575.5 1450.5Q575 1448 575 1446Q575 1440 583 1440Q588 1440 590.5 1446.0Q593 1452 602 1454Q609 1451 613.0 1447.5Q617 1444 620.5 1441.0Q624 1438 629.5 1436.0Q635 1434 644 1434Q665 1434 686.0 1437.5Q707 1441 728 1441Q755 1441 778.0 1432.0Q801 1423 821.5 1409.5Q842 1396 861.0 1379.0Q880 1362 899 1346Q913 1334 927.5 1327.5Q942 1321 955.0 1314.5Q968 1308 980.0 1298.5Q992 1289 1001 1270Q1011 1249 1024.5 1229.5Q1038 1210 1051.5 1191.5Q1065 1173 1078.0 1153.5Q1091 1134 1101 1112Q1126 1055 1136.5 992.5Q1147 930 1158 869Q1163 843 1169.0 816.5Q1175 790 1175 764Q1175 750 1170.0 737.0Q1165 724 1165 710Q1165 701 1168.0 694.0Q1171 687 1175.0 680.0Q1179 673 1182.0 664.0Q1185 655 1185 643ZM1018 710Q1018 749 1007.0 786.0Q996 823 973 855Q984 866 987.0 881.0Q990 896 990 910Q990 925 988.5 940.0Q987 955 987 969Q987 977 981.5 983.0Q976 989 969.5 994.5Q963 1000 956.0 1005.5Q949 1011 946 1019Q942 1029 940.5 1036.5Q939 1044 938.0 1051.0Q937 1058 934.0 1066.0Q931 1074 924 1085Q919 1093 916.0 1100.5Q913 1108 913 1119Q913 1129 916 1140Q912 1148 903.0 1153.5Q894 1159 883 1162Q871 1166 856 1168Q841 1168 824.5 1177.0Q808 1186 790.0 1197.0Q772 1208 753.5 1217.0Q735 1226 716 1226Q687 1226 659.0 1221.0Q631 1216 602 1212Q580 1209 554.0 1208.5Q528 1208 505.5 1203.0Q483 1198 468.0 1184.5Q453 1171 453 1142Q453 1107 457.5 1071.0Q462 1035 462 997Q462 918 455.5 839.5Q449 761 449 681Q449 644 453.0 607.5Q457 571 457 533Q457 484 449.5 436.0Q442 388 442 339Q442 319 442.0 296.0Q442 273 446.0 252.0Q450 231 461.0 214.0Q472 197 494 189Q525 178 555.5 167.5Q586 157 620 157Q640 157 659.0 166.5Q678 176 698 182Q711 186 727.5 189.5Q744 193 760.0 197.5Q776 202 790.5 209.5Q805 217 815 228Q830 245 844.0 258.0Q858 271 883 276Q895 278 898.5 284.5Q902 291 903.5 299.5Q905 308 908.0 317.5Q911 327 921 334Q937 346 945.5 362.0Q954 378 958.0 396.0Q962 414 964.5 432.5Q967 451 972 469Q983 509 997.5 550.0Q1012 591 1012 633Q1012 644 1007.0 652.5Q1002 661 1002 672Q1002 678 1004.5 679.5Q1007 681 1010.0 683.5Q1013 686 1015.5 691.0Q1018 696 1018 710Z"/><path transform="translate(108.66,0) scale(0.008789,-0.008789)" d="M1202 998Q1202 994 1197.0 982.0Q1192 970 1185.5 956.0Q1179 942 1172.0 930.0Q1165 918 1161 914L1163 913Q1161 913 1159 912H1154Q1150 911 1145.5 911.0Q1141 911 1136 911L1140 912Q1117 913 1098.5 920.5Q1080 928 1068 949Q1066 953 1062.0 963.5Q1058 974 1054.0 986.0Q1050 998 1047.5 1008.5Q1045 1019 1045 1024Q1045 1032 1046.5 1041.0Q1048 1050 1048 1058Q1048 1089 1042.0 1119.0Q1036 1149 1036 1180Q1036 1200 1041.0 1219.0Q1046 1238 1059 1254H1054Q1042 1254 1035.0 1261.5Q1028 1269 1012 1269Q974 1269 938.0 1260.0Q902 1251 862 1251Q846 1251 830.0 1251.5Q814 1252 797 1252Q766 1252 736.0 1245.0Q706 1238 678 1238Q675 1238 675 1239Q675 1241 682.0 1244.5Q689 1248 689 1250Q689 1254 682.5 1254.0Q676 1254 674 1254Q666 1254 660.5 1246.0Q655 1238 644 1235Q629 1231 612.0 1231.0Q595 1231 579 1231Q569 1231 550.0 1232.0Q531 1233 512.0 1236.5Q493 1240 477.5 1247.5Q462 1255 460 1269Q449 1266 445.5 1258.5Q442 1251 439.5 1243.0Q437 1235 432.0 1228.5Q427 1222 412 1221Q384 1219 376.0 1203.0Q368 1187 368 1167Q368 1156 369.0 1145.0Q370 1134 370 1123Q370 1083 368.5 1043.5Q367 1004 367 964Q367 947 367.5 918.5Q368 890 371.5 862.5Q375 835 382.0 813.5Q389 792 402 789Q410 787 419.0 786.5Q428 786 437 786Q472 786 505.5 794.0Q539 802 574 802Q588 802 600.5 798.0Q613 794 626 794Q645 794 655.5 812.5Q666 831 670.5 855.5Q675 880 676.0 905.0Q677 930 677 942Q677 967 675.5 991.5Q674 1016 674 1041H680Q705 1041 727.0 1033.0Q749 1025 773 1025Q783 1025 788 1026Q788 1006 795.0 986.0Q802 966 802 945Q802 919 774 912Q782 898 787.0 884.0Q792 870 792 855Q792 844 790.0 833.5Q788 823 788 812Q788 802 794.5 796.5Q801 791 801 784Q801 772 791.5 754.0Q782 736 782 717Q782 695 786.0 671.0Q790 647 795.0 621.0Q800 595 804.0 568.5Q808 542 808 515Q808 499 806.5 482.0Q805 465 799.5 449.5Q794 434 784.5 421.0Q775 408 760 399Q741 401 728.0 410.5Q715 420 706.5 433.5Q698 447 693.5 463.5Q689 480 687 497Q683 523 683.0 545.0Q683 567 673.5 582.5Q664 598 637.5 607.0Q611 616 555 616Q539 616 509.5 613.0Q480 610 451.0 602.5Q422 595 400.5 581.0Q379 567 379 546Q379 534 381.5 522.5Q384 511 384 499Q384 489 383.0 479.0Q382 469 382 458Q382 431 385.0 404.5Q388 378 388 351Q388 322 380.5 294.0Q373 266 373 237Q373 205 388.5 186.5Q404 168 428.0 158.5Q452 149 480.0 146.0Q508 143 532 143Q580 143 628.0 149.0Q676 155 724 155Q754 155 784.0 152.0Q814 149 844 149Q867 149 895.0 150.5Q923 152 948.5 160.0Q974 168 992.5 183.5Q1011 199 1016 228Q1017 236 1021.5 239.5Q1026 243 1031.5 245.5Q1037 248 1041.0 251.0Q1045 254 1045 261Q1045 269 1039.0 279.5Q1033 290 1031 299Q1027 318 1026.5 337.5Q1026 357 1026 376Q1026 406 1035.5 428.5Q1045 451 1045 478Q1045 486 1044.5 493.0Q1044 500 1044 508Q1044 514 1053.0 520.0Q1062 526 1074.0 530.5Q1086 535 1098.0 538.0Q1110 541 1116 541Q1141 541 1157.0 523.5Q1173 506 1181.5 481.0Q1190 456 1193.0 429.0Q1196 402 1196 383Q1196 352 1191.0 313.0Q1186 274 1177.5 233.0Q1169 192 1158.0 153.5Q1147 115 1136 86Q1130 72 1124.5 65.0Q1119 58 1112.5 53.5Q1106 49 1098.5 44.5Q1091 40 1082 30Q1074 21 1051.5 18.0Q1029 15 1004 15Q985 15 968.0 16.0Q951 17 942 17Q909 17 888.5 9.0Q868 1 850 1Q837 1 833.0 6.5Q829 12 821 12Q814 12 808.0 6.0Q802 0 790 0Q778 0 765.5 0.5Q753 1 740 1Q665 1 591.0 -3.5Q517 -8 442 -10Q391 -12 341.0 -22.0Q291 -32 240 -32Q222 -32 199.0 -28.5Q176 -25 155.5 -16.0Q135 -7 121.0 8.5Q107 24 107 47Q107 69 123.0 89.0Q139 109 161.5 126.0Q184 143 208.0 157.5Q232 172 247 185Q246 193 246.0 200.0Q246 207 246 214Q246 229 246.5 244.0Q247 259 252 274Q254 283 262.5 295.5Q271 308 271 317Q271 324 268.5 330.0Q266 336 264 343Q253 370 248.5 391.0Q244 412 244 442Q244 460 244.5 473.5Q245 487 246.5 499.5Q248 512 251.5 525.5Q255 539 261 556Q257 563 252.0 577.0Q247 591 247 599L261 741Q260 744 260 751Q260 760 263.0 769.0Q266 778 266 788Q266 811 258.0 833.5Q250 856 250 879Q250 887 254.0 898.0Q258 909 262.5 922.0Q267 935 271.0 950.5Q275 966 275 984Q275 998 268.5 1008.0Q262 1018 262 1031Q262 1043 268.0 1055.0Q274 1067 274 1081Q274 1101 266.5 1119.5Q259 1138 251 1155Q239 1180 232.5 1195.5Q226 1211 217.0 1220.5Q208 1230 192.5 1234.5Q177 1239 148 1241Q134 1242 121.5 1249.5Q109 1257 99.5 1269.0Q90 1281 84.0 1295.0Q78 1309 78 1322Q78 1340 94.0 1352.5Q110 1365 135.0 1372.5Q160 1380 191.0 1384.5Q222 1389 251.5 1391.5Q281 1394 305.5 1395.0Q330 1396 343 1398Q363 1401 382.0 1402.0Q401 1403 421 1403Q460 1403 499.5 1400.5Q539 1398 578 1398Q620 1398 660.5 1406.0Q701 1414 743 1414Q781 1414 818.0 1405.5Q855 1397 891 1397Q926 1397 960.0 1405.5Q994 1414 1029 1414Q1044 1414 1059 1411Q1081 1387 1099.5 1371.0Q1118 1355 1131.5 1338.5Q1145 1322 1153.5 1300.0Q1162 1278 1165 1242Q1166 1229 1166.0 1210.5Q1166 1192 1167.0 1174.5Q1168 1157 1172.5 1143.0Q1177 1129 1187 1126Q1187 1112 1173 1112Q1174 1098 1179.0 1083.5Q1184 1069 1189.0 1054.5Q1194 1040 1198.0 1025.5Q1202 1011 1202 998ZM336 752Q330 752 325.0 750.0Q320 748 318 741Q356 719 378.5 699.5Q401 680 413.5 668.0Q426 656 432.0 654.5Q438 653 444 667Q452 685 441.5 701.0Q431 717 412.5 728.0Q394 739 372.5 745.5Q351 752 336 752Z"/><path transform="translate(125.16,0) scale(0.008789,-0.008789)" d="M1192 278Q1192 265 1187.0 254.0Q1182 243 1182 230Q1182 220 1186.0 210.5Q1190 201 1190 191Q1190 183 1187.0 165.5Q1184 148 1179.5 129.0Q1175 110 1170.0 93.5Q1165 77 1161 71H1132Q1128 50 1118 28Q1080 10 1053.0 5.0Q1026 0 995 0Q981 0 965.5 0.5Q950 1 932 1Q899 1 874.0 -2.5Q849 -6 820 -23Q811 -27 801 -27Q782 -27 763.5 -23.0Q745 -19 727.0 -14.0Q709 -9 690.5 -5.0Q672 -1 653 -1Q626 -1 599.0 4.5Q572 10 545 10Q525 10 506.0 6.5Q487 3 467.5 -1.5Q448 -6 429.0 -9.5Q410 -13 390 -13Q372 -13 355.0 -9.0Q338 -5 320 -5Q288 -5 256.5 -10.5Q225 -16 193 -16Q151 -16 123.5 4.5Q96 25 96 70Q96 88 104 102Q127 144 151.5 162.5Q176 181 198.5 189.0Q221 197 241.0 200.0Q261 203 276.0 213.0Q291 223 299.5 247.0Q308 271 308 321Q308 380 298.5 437.5Q289 495 289 555Q289 584 295.0 612.0Q301 640 301 669Q301 719 296.5 767.5Q292 816 292 865Q292 899 283.0 931.5Q274 964 274 998Q274 1018 278.0 1036.5Q282 1055 282 1074Q282 1103 279.0 1132.0Q276 1161 274 1190Q273 1206 269.5 1221.5Q266 1237 258.0 1248.5Q250 1260 237.0 1267.0Q224 1274 205 1274Q187 1274 169.5 1268.0Q152 1262 133 1262Q122 1262 112.0 1264.0Q102 1266 92 1269Q87 1276 83.5 1285.0Q80 1294 76.0 1302.5Q72 1311 66.0 1317.5Q60 1324 49 1326Q59 1341 68.0 1365.0Q77 1389 88.5 1411.0Q100 1433 116.0 1449.0Q132 1465 155 1465Q174 1465 190.5 1456.0Q207 1447 226 1447Q250 1447 272.0 1457.0Q294 1467 319 1467Q339 1467 355 1453Q373 1458 388 1458Q398 1458 407.5 1455.0Q417 1452 427 1452Q457 1452 485.5 1460.5Q514 1469 544 1469Q568 1469 590.0 1462.0Q612 1455 633.0 1445.5Q654 1436 675.0 1426.0Q696 1416 719 1411Q720 1406 720.5 1402.5Q721 1399 721 1394V1390L720 1386Q719 1367 713.0 1348.5Q707 1330 704 1312Q699 1288 686.5 1281.5Q674 1275 656 1275Q648 1275 639.0 1275.5Q630 1276 622 1276Q585 1276 548.5 1270.5Q512 1265 477 1254Q467 1235 467 1212Q467 1194 471.0 1176.0Q475 1158 477 1140Q466 1142 457.5 1145.5Q449 1149 438 1149Q430 1149 423.5 1140.0Q417 1131 417 1123Q417 1116 422.0 1111.0Q427 1106 434.0 1103.0Q441 1100 449.0 1099.0Q457 1098 462 1098L463 1078Q463 1041 454.5 1005.5Q446 970 446 933Q446 922 448.5 911.0Q451 900 451 889Q451 876 443.5 873.0Q436 870 427.5 870.0Q419 870 411.5 869.0Q404 868 404 860Q404 857 405 855Q401 847 401 841Q401 832 408.0 830.0Q415 828 423.0 827.5Q431 827 438.0 825.5Q445 824 445 817Q445 806 442.0 796.5Q439 787 439 777Q439 750 450.0 725.0Q461 700 461 673Q461 649 454.5 625.5Q448 602 448 578Q448 563 452.5 548.5Q457 534 462.5 519.5Q468 505 472.5 490.5Q477 476 477 461Q477 440 470.0 420.0Q463 400 463 379Q463 374 465 364Q469 341 472.5 309.5Q476 278 485.0 249.5Q494 221 512.0 201.0Q530 181 563 181Q594 181 623.0 190.5Q652 200 683 200Q702 200 720.5 195.5Q739 191 757.0 185.0Q775 179 793.5 174.5Q812 170 832 170Q862 170 891.5 177.0Q921 184 951 189Q993 197 1014.0 217.5Q1035 238 1035 283Q1035 328 1024.5 370.5Q1014 413 1014 458Q1014 485 1022.0 510.5Q1030 536 1047 556Q1071 564 1095 564Q1139 564 1157.0 535.5Q1175 507 1175 468Q1175 451 1168.0 444.5Q1161 438 1161 432Q1161 430 1165.0 426.5Q1169 423 1174.0 418.0Q1179 413 1183.0 406.0Q1187 399 1187 391Q1187 384 1181 381Q1181 370 1180.0 354.0Q1179 338 1178.5 322.0Q1178 306 1179.0 292.0Q1180 278 1184 271Z"/><path transform="translate(141.00,0) scale(0.008789,-0.008789)" d="M1273 56Q1273 41 1258.5 31.0Q1244 21 1221.5 15.0Q1199 9 1172.0 5.5Q1145 2 1118.5 0.5Q1092 -1 1070.5 -1.0Q1049 -1 1038 -1Q1012 -1 991.0 -7.0Q970 -13 951.5 -20.0Q933 -27 917.0 -33.0Q901 -39 885 -39Q871 -39 861.5 -30.0Q852 -21 838 -21Q822 -21 808.0 -14.0Q794 -7 783.0 4.5Q772 16 765.5 31.0Q759 46 759 61Q759 80 768.5 93.0Q778 106 793.0 114.5Q808 123 825.5 126.5Q843 130 859 130Q873 130 886.0 126.5Q899 123 910 114Q911 129 918.0 139.5Q925 150 933.0 159.5Q941 169 947.5 180.0Q954 191 954 207Q954 233 951.0 259.5Q948 286 948 312Q948 329 951.5 346.0Q955 363 955 381Q955 401 952.5 422.0Q950 443 950 464Q950 484 956.0 497.0Q962 510 962 521Q962 542 955.0 563.5Q948 585 936.0 602.5Q924 620 908.0 632.5Q892 645 875 648Q825 657 775 657Q761 657 749.0 652.5Q737 648 730 648Q724 648 716.0 652.5Q708 657 705 657Q692 657 678.5 652.5Q665 648 651.0 643.0Q637 638 623.0 633.5Q609 629 596 629Q574 629 550.5 628.5Q527 628 504.5 624.5Q482 621 461.5 611.5Q441 602 425 584V577Q425 557 426.0 538.5Q427 520 427 500Q427 477 424.0 457.0Q421 437 410 416Q407 408 407 402Q407 386 413.0 371.5Q419 357 419 341Q419 334 414.0 326.0Q409 318 409 309Q409 295 413.5 282.0Q418 269 424.0 255.5Q430 242 435.0 229.0Q440 216 442 202Q445 173 462.5 158.5Q480 144 503.0 135.5Q526 127 551.5 120.0Q577 113 596 100Q594 90 594 85Q594 68 600.0 53.0Q606 38 606 21Q606 4 593.5 -6.0Q581 -16 563.0 -20.5Q545 -25 526.5 -26.0Q508 -27 496 -27Q494 -27 488.0 -25.5Q482 -24 475.5 -21.5Q469 -19 463.0 -17.0Q457 -15 454 -14Q398 -25 340.0 -28.0Q282 -31 225 -31Q210 -31 186.0 -28.5Q162 -26 138.5 -18.5Q115 -11 98.5 2.5Q82 16 82 38Q82 48 85.0 61.5Q88 75 94.0 88.0Q100 101 108.0 112.0Q116 123 126 128Q148 138 175.5 143.5Q203 149 227.5 161.5Q252 174 269.0 200.0Q286 226 286 278Q286 304 284.0 329.0Q282 354 282 380Q282 394 283.0 408.5Q284 423 284 437Q284 480 279.5 522.5Q275 565 275 608Q275 626 278.0 644.5Q281 663 281 680Q281 705 274.0 729.0Q267 753 267 777Q267 782 268 784Q272 789 275.0 804.5Q278 820 280.5 838.0Q283 856 284.5 872.0Q286 888 286 896Q286 920 281.5 943.5Q277 967 277 991Q277 1005 279.5 1019.5Q282 1034 282 1048Q282 1054 280.0 1055.5Q278 1057 275.0 1058.0Q272 1059 270.0 1061.5Q268 1064 268 1073Q268 1081 277.0 1093.5Q286 1106 286 1117Q286 1126 280.0 1142.5Q274 1159 264.5 1176.0Q255 1193 244.5 1207.0Q234 1221 225 1226Q206 1235 181.5 1239.5Q157 1244 135.0 1251.5Q113 1259 98.0 1274.0Q83 1289 83 1319Q83 1346 98.0 1363.5Q113 1381 135.5 1392.0Q158 1403 184.0 1407.5Q210 1412 231 1412Q246 1412 264.5 1410.5Q283 1409 301.5 1405.0Q320 1401 337.5 1395.5Q355 1390 368 1383Q392 1391 417.0 1396.0Q442 1401 468 1401Q483 1401 500.5 1398.0Q518 1395 532.5 1386.0Q547 1377 556.5 1361.5Q566 1346 566 1321Q566 1310 563.0 1303.5Q560 1297 553 1297Q526 1297 498.5 1284.5Q471 1272 448.0 1251.0Q425 1230 410.5 1203.5Q396 1177 396 1150Q396 1137 399 1125Q408 1094 414.0 1064.0Q420 1034 420 1002Q420 975 416.0 948.5Q412 922 412 895Q412 860 428.5 838.5Q445 817 471.0 805.0Q497 793 527.5 789.0Q558 785 587 785Q616 785 645.0 787.5Q674 790 704 790Q734 790 763.0 782.5Q792 775 822 775Q833 775 844.0 776.5Q855 778 863 783Q866 785 872.5 790.0Q879 795 886.5 799.5Q894 804 900.5 808.0Q907 812 910 812Q927 815 936.0 832.0Q945 849 949.5 870.5Q954 892 955.0 914.5Q956 937 956 951Q956 967 951.0 982.0Q946 997 939.5 1011.5Q933 1026 928.0 1041.0Q923 1056 923 1073Q923 1093 926.5 1113.5Q930 1134 930 1154Q930 1196 914.5 1217.0Q899 1238 876.0 1248.0Q853 1258 825.5 1261.0Q798 1264 775.0 1270.5Q752 1277 736.5 1291.0Q721 1305 721 1337Q721 1358 730.0 1370.0Q739 1382 753.5 1388.5Q768 1395 785.0 1397.0Q802 1399 818 1399Q850 1399 880.5 1395.0Q911 1391 943 1391Q973 1391 1009.0 1397.0Q1045 1403 1082 1403Q1102 1403 1129.0 1400.5Q1156 1398 1181.0 1390.0Q1206 1382 1223.0 1366.0Q1240 1350 1240 1322Q1240 1303 1230.0 1291.5Q1220 1280 1205.0 1271.5Q1190 1263 1171.0 1257.0Q1152 1251 1134.0 1244.5Q1116 1238 1101.0 1229.5Q1086 1221 1079 1207Q1072 1195 1070.5 1180.0Q1069 1165 1069 1151Q1069 1125 1071.5 1100.0Q1074 1075 1074 1049Q1074 959 1068.0 870.5Q1062 782 1062 693Q1062 662 1062.5 631.5Q1063 601 1066 570Q1068 541 1077.0 513.5Q1086 486 1086 457Q1086 443 1083.0 435.0Q1080 427 1076.5 421.0Q1073 415 1070.0 410.0Q1067 405 1067 399Q1067 382 1075.0 366.0Q1083 350 1083 333Q1083 311 1078.5 289.0Q1074 267 1074 245Q1074 243 1077.5 229.5Q1081 216 1085.5 200.0Q1090 184 1095.0 170.0Q1100 156 1103 153Q1115 141 1132.0 135.0Q1149 129 1168.0 124.5Q1187 120 1205.5 115.0Q1224 110 1238 100Q1248 93 1260.5 81.5Q1273 70 1273 56Z"/><path transform="translate(157.75,0) scale(0.008789,-0.008789)" d="M960 1324Q960 1313 952.5 1304.0Q945 1295 934.5 1286.5Q924 1278 913.0 1271.0Q902 1264 895 1258Q878 1244 854 1244Q838 1244 823.5 1248.0Q809 1252 793 1252Q786 1252 782 1249Q769 1241 757.0 1240.0Q745 1239 731 1239Q723 1239 709.5 1246.5Q696 1254 695 1262L702 1269Q691 1265 687.0 1260.0Q683 1255 681.5 1249.0Q680 1243 679.0 1236.0Q678 1229 674 1222Q669 1212 658.5 1210.0Q648 1208 637.5 1201.0Q627 1194 619.0 1175.5Q611 1157 611 1114Q611 1095 613.0 1077.0Q615 1059 615 1041Q615 1005 609.0 969.5Q603 934 603 897Q603 875 596.5 855.0Q590 835 590 813Q590 782 616 770Q609 767 605.0 754.5Q601 742 598.5 726.5Q596 711 595.5 696.5Q595 682 595 676Q595 672 595.0 665.0Q595 658 596.0 650.5Q597 643 598.0 636.5Q599 630 602 627Q610 619 610 607Q610 595 606.0 583.5Q602 572 602 560Q602 511 608.5 462.5Q615 414 615 365Q615 333 608.5 301.0Q602 269 602 237Q602 208 612.0 191.0Q622 174 639.0 165.0Q656 156 678.0 153.0Q700 150 724 150Q762 150 799.5 156.5Q837 163 874 163Q911 163 931.5 140.0Q952 117 952 81Q952 54 943.5 30.5Q935 7 919.5 -10.5Q904 -28 882.0 -38.0Q860 -48 832 -48Q812 -48 787 -43Q747 -35 707.0 -31.5Q667 -28 625 -28Q590 -28 555.0 -29.5Q520 -31 485 -31Q443 -31 402.0 -30.0Q361 -29 319 -29Q304 -29 290.0 -24.0Q276 -19 262 -19Q252 -19 239.0 -22.5Q226 -26 211.5 -30.0Q197 -34 181.0 -37.5Q165 -41 149 -41Q112 -41 85.0 -24.5Q58 -8 58 33Q58 46 61 58Q62 67 70.5 83.0Q79 99 90.5 114.5Q102 130 114.5 141.0Q127 152 137 152Q145 152 152.5 148.0Q160 144 169.5 138.5Q179 133 192.0 129.0Q205 125 223 125Q259 125 298.0 132.0Q337 139 369.5 156.5Q402 174 423.0 202.5Q444 231 444 274Q444 290 442.0 305.5Q440 321 438 337Q432 389 431.0 442.0Q430 495 430 548Q430 583 439.0 615.5Q448 648 448 683Q448 703 441.0 721.0Q434 739 434 758Q434 767 436.5 776.0Q439 785 439 795Q439 817 434.5 837.5Q430 858 430 879Q430 914 437.5 949.0Q445 984 445 1019Q445 1040 440.0 1061.0Q435 1082 429.5 1102.0Q424 1122 419.0 1143.0Q414 1164 414 1185Q414 1198 417 1212Q411 1226 400.0 1234.0Q389 1242 376.0 1249.0Q363 1256 350.5 1263.0Q338 1270 331 1283Q323 1282 321.0 1275.5Q319 1269 318.0 1261.5Q317 1254 314.5 1247.5Q312 1241 303 1240Q275 1237 246.5 1235.0Q218 1233 190 1233Q174 1233 150.5 1235.0Q127 1237 105.5 1244.0Q84 1251 69.0 1264.0Q54 1277 54 1300Q54 1314 60.5 1329.5Q67 1345 76.5 1360.0Q86 1375 97.5 1388.5Q109 1402 118 1412Q125 1419 139.0 1424.0Q153 1429 170.5 1431.0Q188 1433 208.0 1434.0Q228 1435 248 1435Q273 1435 294.5 1434.5Q316 1434 330 1434Q355 1434 391.5 1435.5Q428 1437 461.5 1440.0Q495 1443 519.5 1446.5Q544 1450 545 1454Q551 1451 559.5 1444.5Q568 1438 577.5 1432.0Q587 1426 596.0 1421.0Q605 1416 610 1416Q616 1416 619.5 1420.5Q623 1425 625.5 1431.0Q628 1437 629.0 1443.5Q630 1450 630 1454H637Q659 1454 666.5 1441.0Q674 1428 674 1410Q674 1406 673.5 1403.0Q673 1400 673 1397Q683 1399 687.5 1406.5Q692 1414 695.0 1422.0Q698 1430 702.5 1436.0Q707 1442 718 1442Q722 1442 730 1440H737Q759 1422 771.5 1412.0Q784 1402 791.0 1397.5Q798 1393 800.0 1392.0Q802 1391 803 1391Q805 1391 810.5 1390.0Q816 1389 816 1390Q816 1394 811.5 1397.5Q807 1401 801.5 1405.0Q796 1409 791.5 1414.0Q787 1419 787 1425Q799 1425 806.0 1428.5Q813 1432 818.0 1436.5Q823 1441 828.5 1445.0Q834 1449 843 1449Q856 1449 863.0 1445.0Q870 1441 875.0 1436.5Q880 1432 884.0 1428.0Q888 1424 895 1424Q900 1424 903.5 1425.0Q907 1426 912 1426Q919 1426 921.0 1420.0Q923 1414 924 1409Q927 1394 929.0 1386.0Q931 1378 934.0 1372.0Q937 1366 941.5 1359.5Q946 1353 954 1341Q960 1333 960 1324ZM459 1258Q465 1266 456.0 1276.0Q447 1286 436 1286Q424 1286 420.5 1274.5Q417 1263 417 1254Q419 1247 423 1243Q426 1239 430.0 1236.0Q434 1233 439 1233Q447 1233 451.0 1236.5Q455 1240 457 1245Q459 1250 459 1258Z"/></g>
</svg>