<svg xmlns="http://www.w3.org/2000/svg" viewBox="117.8 124.8 196.5 205.2">
<g transform="translate(0,48)">
  <path d="M128,272 C128,196 160,158 200,158 C240,158 272,196 272,272 Z" fill="#F7EEDD" stroke="#F7EEDD" stroke-width="8"/>
  <path d="M200,161 Q186,177 182,201" fill="none" stroke="#1E4636" stroke-width="4.5" stroke-linecap="round"/>
  <path d="M200,161 Q214,177 218,201" fill="none" stroke="#1E4636" stroke-width="4.5" stroke-linecap="round"/>
  <circle cx="176" cy="226" r="6.5" fill="#1E4636"/>
  <circle cx="224" cy="226" r="6.5" fill="#1E4636"/>
  <path d="M184,246 Q200,260 216,246" fill="none" stroke="#1E4636" stroke-width="5.5" stroke-linecap="round"/>
  <ellipse cx="155" cy="242" rx="8" ry="5.5" fill="#C62828" opacity=".75"/>
  <ellipse cx="245" cy="242" rx="8" ry="5.5" fill="#C62828" opacity=".75"/>
  <path d="M272,234 Q296,224 304,202" fill="none" stroke="#F7EEDD" stroke-width="8" stroke-linecap="round"/>
  <g transform="rotate(-8,200,152)">
    <path d="M150,150 a24,24 0 0 1 20,-34 a26,26 0 0 1 60,0 a24,24 0 0 1 20,34 Z" fill="#F7EEDD" stroke="#F7EEDD" stroke-width="7" stroke-linejoin="round"/>
    <rect x="150" y="146" width="100" height="17" rx="8" fill="#1E4636"/>
  </g>
</g>
</svg>