<svg xmlns="http://www.w3.org/2000/svg" viewBox="-0.4 -35.2 372.4 38.2"><g fill="#F7EEDD"><path transform="translate(0.00,0) scale(0.023000,-0.023000)" d="M683 -30Q614 -30 563.5 -15.5Q513 -1 479.5 13.0Q446 27 423 27Q399 27 379.5 17.5Q360 8 341.5 -4.0Q323 -16 303.5 -26.0Q284 -36 263 -36Q232 -36 212.5 -18.0Q193 0 186 41L129 386Q125 414 138.0 434.5Q151 455 181 466Q215 478 240.0 465.5Q265 453 283 417Q347 297 407.0 231.0Q467 165 526.5 139.0Q586 113 649 113Q732 113 782.5 152.0Q833 191 833 262Q833 311 809.0 347.5Q785 384 714.0 418.0Q643 452 502 493Q346 539 251.5 603.5Q157 668 115.0 761.0Q73 854 73 982Q73 1111 136.0 1211.5Q199 1312 316.0 1369.0Q433 1426 591 1426Q672 1426 729.5 1412.0Q787 1398 827.5 1383.5Q868 1369 898 1369Q923 1369 943.0 1384.5Q963 1400 986.0 1416.0Q1009 1432 1042 1432Q1074 1432 1095.5 1412.0Q1117 1392 1132 1336L1222 1004Q1232 968 1219.0 940.0Q1206 912 1174 901Q1141 891 1116.0 903.5Q1091 916 1074 947Q1009 1075 936.0 1148.5Q863 1222 789.5 1252.5Q716 1283 647 1283Q568 1283 524.0 1239.0Q480 1195 480 1126Q480 1081 502.5 1044.0Q525 1007 594.0 969.0Q663 931 802 882Q955 829 1047.5 764.5Q1140 700 1181.5 614.5Q1223 529 1223 413Q1223 290 1158.0 189.5Q1093 89 972.5 29.5Q852 -30 683 -30Z"/><path transform="translate(29.76,0) scale(0.023000,-0.023000)" d="M405 1400H1083Q1128 1400 1160.5 1408.0Q1193 1416 1218.5 1423.5Q1244 1431 1270 1431Q1317 1431 1340.5 1408.0Q1364 1385 1379 1330L1443 994Q1451 955 1436.5 930.5Q1422 906 1388 900Q1357 893 1333.0 904.0Q1309 915 1293 948Q1233 1068 1190.0 1133.5Q1147 1199 1109.5 1225.5Q1072 1252 1026 1252H976V218Q976 193 989.0 177.5Q1002 162 1027 153L1065 139Q1116 119 1116 66Q1116 0 1032 0H456Q413 0 392.5 18.0Q372 36 372 66Q372 119 423 139L462 153Q488 162 500.5 177.5Q513 193 513 218V1252H462Q417 1252 379.0 1225.5Q341 1199 298.5 1133.0Q256 1067 196 948Q179 915 155.0 904.0Q131 893 100 900Q67 906 52.5 930.5Q38 955 45 994L109 1330Q124 1385 147.5 1408.0Q171 1431 219 1431Q244 1431 269.5 1423.5Q295 1416 327.5 1408.0Q360 1400 405 1400Z"/><path transform="translate(63.99,0) scale(0.023000,-0.023000)" d="M519 780H779Q842 780 869.0 805.0Q896 830 917 902Q927 935 945.5 949.5Q964 964 989 964Q1041 964 1054 906L1133 589Q1142 553 1133.0 532.0Q1124 511 1095 501Q1068 491 1044.0 498.0Q1020 505 1003 529Q971 576 944.0 600.5Q917 625 884.0 634.0Q851 643 799 643H519ZM88 1334Q88 1365 108.5 1382.5Q129 1400 172 1400H931Q977 1400 1006.5 1409.0Q1036 1418 1062.0 1427.0Q1088 1436 1123 1436Q1167 1436 1189.0 1411.0Q1211 1386 1228 1330L1313 1045Q1324 1010 1313.5 986.5Q1303 963 1272 952Q1237 940 1209.5 952.5Q1182 965 1164 998Q1120 1079 1081.0 1130.0Q1042 1181 1003.0 1209.5Q964 1238 921.0 1249.0Q878 1260 825 1260H692V260Q692 200 722.0 170.0Q752 140 808 140H855Q929 140 987.0 164.0Q1045 188 1098.0 253.5Q1151 319 1211 443Q1226 475 1251.0 486.0Q1276 497 1307 491Q1341 484 1356.5 459.5Q1372 435 1362 397L1268 70Q1252 16 1229.0 -10.0Q1206 -36 1159 -36Q1128 -36 1103.0 -27.0Q1078 -18 1047.5 -9.0Q1017 0 972 0H172Q129 0 108.5 18.0Q88 36 88 66Q88 119 139 139L178 153Q204 162 216.5 177.5Q229 193 229 218V1182Q229 1207 216.5 1222.5Q204 1238 178 1247L139 1261Q88 1281 88 1334Z"/><path transform="translate(95.75,0) scale(0.023000,-0.023000)" d="M355 594H936L937 449H353ZM514 66Q514 36 494.0 18.0Q474 0 431 0H110Q68 0 47.5 18.0Q27 36 27 66Q27 88 37.0 103.0Q47 118 71 133L92 146Q125 166 144.0 196.0Q163 226 185 299L442 1130Q460 1189 455.0 1216.0Q450 1243 414 1260Q386 1274 374.5 1291.5Q363 1309 363 1334Q363 1365 384.0 1382.5Q405 1400 448 1400H1088Q1131 1400 1151.5 1382.5Q1172 1365 1172 1334Q1172 1307 1159.5 1290.0Q1147 1273 1124 1262Q1099 1250 1094.5 1230.0Q1090 1210 1104 1166L1382 285Q1403 219 1420.0 188.0Q1437 157 1464 144Q1499 126 1510.5 109.5Q1522 93 1522 66Q1522 36 1501.5 18.0Q1481 0 1438 0H909Q865 0 845.0 18.0Q825 36 825 66Q825 91 837.5 106.0Q850 121 876 133L908 148Q934 160 930.5 180.0Q927 200 913 246L617 1225L659 1256L371 324Q355 273 355.0 241.5Q355 210 374.5 188.5Q394 167 437 145L464 131Q487 119 500.5 105.0Q514 91 514 66Z"/><path transform="translate(131.86,0) scale(0.023000,-0.023000)" d="M1064 483 921 461 1219 1267Q1247 1343 1284.0 1371.5Q1321 1400 1386 1400H1776Q1819 1400 1839.5 1382.5Q1860 1365 1860 1334Q1860 1306 1847.0 1288.0Q1834 1270 1810 1261L1772 1247Q1741 1237 1730.5 1220.0Q1720 1203 1722 1168L1785 228Q1787 191 1797.5 176.5Q1808 162 1833 153L1872 139Q1894 131 1906.0 113.5Q1918 96 1918 70Q1918 40 1897.5 20.0Q1877 0 1834 0H1274Q1230 0 1209.5 18.0Q1189 36 1189 66Q1189 92 1200.0 110.5Q1211 129 1240 139L1279 153Q1309 163 1319.5 179.5Q1330 196 1328 229L1254 1222L1382 1234L981 145Q953 70 924.5 49.5Q896 29 856 29Q826 29 802.0 36.0Q778 43 757.0 69.0Q736 95 714 152L302 1195L426 1217L349 266Q345 218 370.0 192.5Q395 167 433 146L461 130Q478 121 487.0 106.5Q496 92 496 69Q496 38 476.0 19.0Q456 0 413 0H116Q73 0 53.0 18.0Q33 36 33 66Q33 97 49.0 113.0Q65 129 90 142L111 152Q143 167 166.0 193.5Q189 220 193 267L261 1121Q266 1180 255.0 1208.0Q244 1236 212 1247L174 1261Q148 1271 135.5 1288.5Q123 1306 123 1334Q123 1400 207 1400H593Q654 1400 690.5 1374.5Q727 1349 758 1271Z"/><path transform="translate(177.08,0) scale(0.023000,-0.023000)" d="M924 432 551 382 159 1174Q139 1214 125.0 1229.5Q111 1245 88 1254L61 1266Q40 1276 29.0 1294.0Q18 1312 18 1334Q18 1365 38.5 1382.5Q59 1400 102 1400H670Q713 1400 733.5 1382.5Q754 1365 754 1334Q754 1279 703 1262L676 1253Q646 1242 641.0 1222.5Q636 1203 654 1160L918 545L769 475L1065 1114Q1086 1160 1075.5 1197.5Q1065 1235 1016 1255L993 1266Q976 1274 964.0 1291.0Q952 1308 952 1334Q952 1365 972.5 1382.5Q993 1400 1036 1400H1325Q1368 1400 1388.0 1382.5Q1408 1365 1408 1334Q1408 1310 1398.0 1295.0Q1388 1280 1367 1268L1351 1259Q1332 1249 1314.5 1232.5Q1297 1216 1277.5 1184.5Q1258 1153 1231 1096ZM497 518 961 519V218Q961 193 973.5 177.5Q986 162 1011 153L1050 139Q1101 119 1101 66Q1101 36 1080.5 18.0Q1060 0 1017 0H441Q398 0 377.5 18.0Q357 36 357 66Q357 119 408 139L447 153Q473 162 485.0 177.5Q497 193 497 218Z"/><path transform="translate(219.05,0) scale(0.023000,-0.023000)" d="M1510 335Q1510 185 1380.5 92.5Q1251 0 980 0H172Q129 0 108.5 18.0Q88 36 88 66Q88 119 139 139L178 153Q204 163 216.5 178.0Q229 193 229 218V1182Q229 1207 216.5 1222.0Q204 1237 178 1247L139 1261Q88 1281 88 1334Q88 1365 108.5 1382.5Q129 1400 172 1400H803Q999 1400 1139.0 1348.0Q1279 1296 1354.5 1203.0Q1430 1110 1430 985Q1430 884 1369.5 806.5Q1309 729 1194.0 685.0Q1079 641 915 641L961 682Q1124 682 1247.5 638.5Q1371 595 1440.5 516.5Q1510 438 1510 335ZM822 586H567V694H774Q848 694 897.5 722.0Q947 750 971.5 809.0Q996 868 996 958Q996 1056 963.0 1126.0Q930 1196 868.0 1234.5Q806 1273 720 1273H691V244Q691 184 725.0 155.5Q759 127 821 127H873Q929 127 969.5 153.0Q1010 179 1032.5 229.0Q1055 279 1055 350Q1055 461 993.0 523.5Q931 586 822 586Z"/><path transform="translate(254.59,0) scale(0.023000,-0.023000)" d="M692 218Q692 193 705.0 177.5Q718 162 743 153L781 139Q832 119 832 66Q832 36 811.5 18.0Q791 0 748 0H172Q129 0 108.5 18.0Q88 36 88 66Q88 119 139 139L178 153Q204 162 216.5 177.5Q229 193 229 218V1182Q229 1207 216.5 1222.5Q204 1238 178 1247L139 1261Q88 1281 88 1334Q88 1365 108.5 1382.5Q129 1400 172 1400H748Q791 1400 811.5 1382.5Q832 1365 832 1334Q832 1281 781 1261L743 1247Q718 1238 705.0 1222.5Q692 1207 692 1182Z"/><path transform="translate(275.75,0) scale(0.023000,-0.023000)" d="M405 1400H1083Q1128 1400 1160.5 1408.0Q1193 1416 1218.5 1423.5Q1244 1431 1270 1431Q1317 1431 1340.5 1408.0Q1364 1385 1379 1330L1443 994Q1451 955 1436.5 930.5Q1422 906 1388 900Q1357 893 1333.0 904.0Q1309 915 1293 948Q1233 1068 1190.0 1133.5Q1147 1199 1109.5 1225.5Q1072 1252 1026 1252H976V218Q976 193 989.0 177.5Q1002 162 1027 153L1065 139Q1116 119 1116 66Q1116 0 1032 0H456Q413 0 392.5 18.0Q372 36 372 66Q372 119 423 139L462 153Q488 162 500.5 177.5Q513 193 513 218V1252H462Q417 1252 379.0 1225.5Q341 1199 298.5 1133.0Q256 1067 196 948Q179 915 155.0 904.0Q131 893 100 900Q67 906 52.5 930.5Q38 955 45 994L109 1330Q124 1385 147.5 1408.0Q171 1431 219 1431Q244 1431 269.5 1423.5Q295 1416 327.5 1408.0Q360 1400 405 1400Z"/><path transform="translate(309.97,0) scale(0.023000,-0.023000)" d="M519 780H779Q842 780 869.0 805.0Q896 830 917 902Q927 935 945.5 949.5Q964 964 989 964Q1041 964 1054 906L1133 589Q1142 553 1133.0 532.0Q1124 511 1095 501Q1068 491 1044.0 498.0Q1020 505 1003 529Q971 576 944.0 600.5Q917 625 884.0 634.0Q851 643 799 643H519ZM88 1334Q88 1365 108.5 1382.5Q129 1400 172 1400H931Q977 1400 1006.5 1409.0Q1036 1418 1062.0 1427.0Q1088 1436 1123 1436Q1167 1436 1189.0 1411.0Q1211 1386 1228 1330L1313 1045Q1324 1010 1313.5 986.5Q1303 963 1272 952Q1237 940 1209.5 952.5Q1182 965 1164 998Q1120 1079 1081.0 1130.0Q1042 1181 1003.0 1209.5Q964 1238 921.0 1249.0Q878 1260 825 1260H692V260Q692 200 722.0 170.0Q752 140 808 140H855Q929 140 987.0 164.0Q1045 188 1098.0 253.5Q1151 319 1211 443Q1226 475 1251.0 486.0Q1276 497 1307 491Q1341 484 1356.5 459.5Q1372 435 1362 397L1268 70Q1252 16 1229.0 -10.0Q1206 -36 1159 -36Q1128 -36 1103.0 -27.0Q1078 -18 1047.5 -9.0Q1017 0 972 0H172Q129 0 108.5 18.0Q88 36 88 66Q88 119 139 139L178 153Q204 162 216.5 177.5Q229 193 229 218V1182Q229 1207 216.5 1222.5Q204 1238 178 1247L139 1261Q88 1281 88 1334Z"/><path transform="translate(341.73,0) scale(0.023000,-0.023000)" d="M683 -30Q614 -30 563.5 -15.5Q513 -1 479.5 13.0Q446 27 423 27Q399 27 379.5 17.5Q360 8 341.5 -4.0Q323 -16 303.5 -26.0Q284 -36 263 -36Q232 -36 212.5 -18.0Q193 0 186 41L129 386Q125 414 138.0 434.5Q151 455 181 466Q215 478 240.0 465.5Q265 453 283 417Q347 297 407.0 231.0Q467 165 526.5 139.0Q586 113 649 113Q732 113 782.5 152.0Q833 191 833 262Q833 311 809.0 347.5Q785 384 714.0 418.0Q643 452 502 493Q346 539 251.5 603.5Q157 668 115.0 761.0Q73 854 73 982Q73 1111 136.0 1211.5Q199 1312 316.0 1369.0Q433 1426 591 1426Q672 1426 729.5 1412.0Q787 1398 827.5 1383.5Q868 1369 898 1369Q923 1369 943.0 1384.5Q963 1400 986.0 1416.0Q1009 1432 1042 1432Q1074 1432 1095.5 1412.0Q1117 1392 1132 1336L1222 1004Q1232 968 1219.0 940.0Q1206 912 1174 901Q1141 891 1116.0 903.5Q1091 916 1074 947Q1009 1075 936.0 1148.5Q863 1222 789.5 1252.5Q716 1283 647 1283Q568 1283 524.0 1239.0Q480 1195 480 1126Q480 1081 502.5 1044.0Q525 1007 594.0 969.0Q663 931 802 882Q955 829 1047.5 764.5Q1140 700 1181.5 614.5Q1223 529 1223 413Q1223 290 1158.0 189.5Q1093 89 972.5 29.5Q852 -30 683 -30Z"/></g></svg>