<svg xmlns="http://www.w3.org/2000/svg" viewBox="0 0 1024 1024" width="1024" height="1024"><circle cx="512" cy="512" r="474" fill="#FFF6E3"/><circle cx="512" cy="512" r="444" fill="#FFC93C"/><g transform="translate(215.36,354.21) rotate(-61.99)"><path d="M20.42-3.86Q17.66-1.84 12.74-0.51Q7.82 0.83 0.05 0.83Q-7.73 0.83-14.72-0.46Q-21.71-1.75-24.75-3.31Q-27.78-4.88-27.78-6.35L-27.78-6.35Q-27.78-11.50-26.31-17.07Q-24.84-22.63-22.82-22.63L-22.82-22.63Q-22.45-22.63-15.18-20.15Q-7.91-17.66-4.23-17.66Q-0.55-17.66 0.55-18.45Q1.66-19.23 1.66-20.70Q1.66-22.17-0.37-23.32Q-2.39-24.47-5.43-25.35Q-8.46-26.22-12.01-27.88Q-15.55-29.53-18.58-31.56Q-21.62-33.58-23.64-37.31Q-25.67-41.03-25.67-45.82L-25.67-45.82Q-25.67-66.24-1.29-66.24L-1.29-66.24Q7.82-66.24 14.44-65.09Q21.07-63.94 23.78-62.51Q26.50-61.09 26.50-59.71L26.50-59.71Q26.50-54.92 24.24-49.40Q21.99-43.88 19.87-43.88L19.87-43.88Q19.50-43.88 17.48-44.71L17.48-44.71Q11.41-47.38 7.41-47.38Q3.40-47.38 1.98-46.64Q0.55-45.91 0.55-44.39Q0.55-42.87 2.58-41.91Q4.60-40.94 7.59-40.16Q10.58-39.38 14.12-37.77Q17.66-36.16 20.70-33.99Q23.74-31.83 25.76-27.88Q27.78-23.92 27.78-18.68L27.78-18.68Q27.78-13.16 24.93-8.65L24.93-8.65Q23.18-5.89 20.42-3.86Z" fill="#C62828"/></g><g transform="translate(254.03,296.72) rotate(-50.15)"><path d="M12.83-2.21Q12.83-1.20 7.18-0.60Q1.52 0-4.14 0Q-9.80 0-11.32-0.51Q-12.83-1.01-12.83-2.21L-12.83-2.21L-12.83-41.77L-25.62-41.77Q-26.63-41.77-27.37-44.34Q-28.11-46.92-28.11-52.03Q-28.11-57.13-27.00-61.23Q-25.90-65.32-24.06-65.32L-24.06-65.32L25.71-65.32Q27.09-65.32 27.60-62.74Q28.11-60.17 28.11-55.29Q28.11-50.42 27.09-46.09Q26.08-41.77 24.33-41.77L24.33-41.77L12.83-41.77L12.83-2.21Z" fill="#C62828"/></g><g transform="translate(302.09,249.64) rotate(-38.66)"><path d="M22.26 0L22.26 0L-16.74 0Q-21.25 0-22.82-0.64Q-24.38-1.29-24.38-2.67L-24.38-2.67L-24.38-60.90Q-24.38-63.30-22.22-64.31Q-20.06-65.32-14.44-65.32L-14.44-65.32L22.54-65.32Q24.47-65.32 24.47-58.93Q24.47-52.53 23.64-49.17Q22.82-45.82 21.44-45.82L21.44-45.82Q15.46-45.82 1.29-47.01L1.29-47.01L1.29-40.85Q14.90-41.40 19.04-41.40L19.04-41.40Q21.53-41.40 21.53-35.60Q21.53-29.81 20.56-26.82Q19.60-23.83 17.94-23.83L17.94-23.83L1.29-24.20L1.29-18.31Q17.30-19.50 23.37-19.50L23.37-19.50Q25.30-19.50 25.30-13.06Q25.30-6.62 24.47-3.31Q23.64 0 22.26 0Z" fill="#C62828"/></g><g transform="translate(362.14,211.27) rotate(-26.49)"><path d="M-4.88-4.69Q-5.06-2.02-7.68-1.01Q-10.30 0-17.11 0Q-23.92 0-28.47-1.24Q-33.03-2.48-33.03-4.42L-33.03-4.42Q-33.03-6.62-24.84-32.61Q-16.65-58.60-15.46-62.56L-15.46-62.56Q-15.00-63.76-8.05-64.54Q-1.10-65.32 6.85-65.32Q14.81-65.32 15.64-62.56L15.64-62.56Q33.03-4.78 33.03-3.86Q33.03-2.94 31.92-2.02L31.92-2.02Q29.35 0 21.71 0L21.71 0Q5.43 0 5.06-3.86L5.06-3.86L4.42-9.84L-4.42-9.84L-4.88-4.69ZM-2.48-27.32L2.48-27.32L1.10-43.88L-0.92-43.88L-2.48-27.32Z" fill="#C62828"/></g><g transform="translate(441.01,183.58) rotate(-12.20)"><path d="M-22.63 0L-22.63 0Q-24.93 0-29.30 0Q-33.67 0-35.24-0.64Q-36.80-1.29-36.80-2.67L-36.80-2.67L-36.80-60.72Q-36.80-62.84-31.14-64.08Q-25.48-65.32-19.04-65.32Q-12.60-65.32-9.84-63.66Q-7.08-62.01-6.62-60.17L-6.62-60.17L-0.37-35.88L0.46-35.88L6.35-59.06Q6.99-61.55 12.37-63.43Q17.76-65.32 24.20-65.32Q30.64-65.32 33.72-64.31Q36.80-63.30 36.80-61.73L36.80-61.73L36.80-2.67Q36.80-1.47 31.56-0.74Q26.31 0 18.77 0Q11.22 0 11.22-2.67L11.22-2.67Q11.22-9.94 12.79-28.52L12.79-28.52L11.96-28.52L7.18-4.51Q6.90-3.13 4.92-2.48Q2.94-1.84-1.01-1.84Q-4.97-1.84-5.84-2.39Q-6.72-2.94-6.99-4.51L-6.99-4.51L-11.96-28.52L-12.79-28.52Q-11.13-9.57-11.13-2.67L-11.13-2.67Q-11.13-0.28-22.63 0Z" fill="#C62828"/></g><g transform="translate(522.44,176.16) rotate(1.78)"><path d="M12.70-2.67Q12.70-1.47 7.08-0.74Q1.47 0-4.09 0Q-9.66 0-11.32-0.60Q-12.97-1.20-12.97-2.67L-12.97-2.67L-12.97-18.68Q-31.19-55.94-31.19-59.16L-31.19-59.16Q-31.19-61.09-25.02-63.20Q-18.86-65.32-12.05-65.32L-12.05-65.32Q-3.31-65.32-2.76-60.17L-2.76-60.17L-0.28-35.42L0.74-35.42L2.48-59.52Q2.67-62.10 9.02-63.71Q15.36-65.32 21.07-65.32Q26.77-65.32 28.98-63.66Q31.19-62.01 31.19-60.17L31.19-60.17Q31.19-58.42 12.70-18.68L12.70-18.68L12.70-2.67Z" fill="#C62828"/></g><g transform="translate(624.25,195.30) rotate(19.52)"><path d="M-0.87 0L-0.87 0L-21.02 0Q-25.62 0-27.19-0.64Q-28.75-1.29-28.75-2.67L-28.75-2.67L-28.75-61.82Q-28.75-66.24-2.16-66.24L-2.16-66.24Q13.11-66.24 18.91-63.30L18.91-63.30Q24.79-60.26 26.45-55.57L26.45-55.57Q27.37-52.81 27.37-49.13L27.37-49.13Q27.37-41.95 24.93-38.36Q22.49-34.78 19.64-34.32L19.64-34.32Q23.97-33.40 26.82-30.08Q29.67-26.77 29.67-18.86L29.67-18.86Q29.67-9.66 24.06-5.24L24.06-5.24Q19.18-1.38 9.15-0.37L9.15-0.37Q4.92 0-0.87 0ZM-3.08-40.11L-0.78-40.11Q3.91-40.11 3.91-46.37L3.91-46.37Q3.91-49.50 2.67-51.01Q1.43-52.53-0.14-52.53L-0.14-52.53L-3.08-52.53L-3.08-40.11ZM-3.08-26.13L-3.08-13.71L-0.78-13.71Q3.91-13.71 3.91-19.96L3.91-19.96Q3.91-23.09 2.67-24.61Q1.43-26.13-0.14-26.13L-0.14-26.13L-3.08-26.13Z" fill="#C62828"/></g><g transform="translate(677.26,219.45) rotate(29.46)"><path d="M12.83-2.21Q12.83-1.20 7.22-0.60Q1.61 0-4.05 0Q-9.71 0-11.27-0.51Q-12.83-1.01-12.83-2.21L-12.83-2.21L-12.83-59.43Q-12.83-61.46-7.50-63.43Q-2.16-65.41 4.46-65.41L4.46-65.41Q10.35-65.41 12.19-62.93L12.19-62.93Q12.83-62.01 12.83-61.09L12.83-61.09L12.83-2.21Z" fill="#C62828"/></g><g transform="translate(723.38,250.82) rotate(38.98)"><path d="M12.83-2.21Q12.83-1.20 7.18-0.60Q1.52 0-4.14 0Q-9.80 0-11.32-0.51Q-12.83-1.01-12.83-2.21L-12.83-2.21L-12.83-41.77L-25.62-41.77Q-26.63-41.77-27.37-44.34Q-28.11-46.92-28.11-52.03Q-28.11-57.13-27.00-61.23Q-25.90-65.32-24.06-65.32L-24.06-65.32L25.71-65.32Q27.09-65.32 27.60-62.74Q28.11-60.17 28.11-55.29Q28.11-50.42 27.09-46.09Q26.08-41.77 24.33-41.77L24.33-41.77L12.83-41.77L12.83-2.21Z" fill="#C62828"/></g><g transform="translate(771.18,298.17) rotate(50.48)"><path d="M22.26 0L22.26 0L-16.74 0Q-21.25 0-22.82-0.64Q-24.38-1.29-24.38-2.67L-24.38-2.67L-24.38-60.90Q-24.38-63.30-22.22-64.31Q-20.06-65.32-14.44-65.32L-14.44-65.32L22.54-65.32Q24.47-65.32 24.47-58.93Q24.47-52.53 23.64-49.17Q22.82-45.82 21.44-45.82L21.44-45.82Q15.46-45.82 1.29-47.01L1.29-47.01L1.29-40.85Q14.90-41.40 19.04-41.40L19.04-41.40Q21.53-41.40 21.53-35.60Q21.53-29.81 20.56-26.82Q19.60-23.83 17.94-23.83L17.94-23.83L1.29-24.20L1.29-18.31Q17.30-19.50 23.37-19.50L23.37-19.50Q25.30-19.50 25.30-13.06Q25.30-6.62 24.47-3.31Q23.64 0 22.26 0Z" fill="#C62828"/></g><g transform="translate(808.64,354.21) rotate(61.99)"><path d="M20.42-3.86Q17.66-1.84 12.74-0.51Q7.82 0.83 0.05 0.83Q-7.73 0.83-14.72-0.46Q-21.71-1.75-24.75-3.31Q-27.78-4.88-27.78-6.35L-27.78-6.35Q-27.78-11.50-26.31-17.07Q-24.84-22.63-22.82-22.63L-22.82-22.63Q-22.45-22.63-15.18-20.15Q-7.91-17.66-4.23-17.66Q-0.55-17.66 0.55-18.45Q1.66-19.23 1.66-20.70Q1.66-22.17-0.37-23.32Q-2.39-24.47-5.43-25.35Q-8.46-26.22-12.01-27.88Q-15.55-29.53-18.58-31.56Q-21.62-33.58-23.64-37.31Q-25.67-41.03-25.67-45.82L-25.67-45.82Q-25.67-66.24-1.29-66.24L-1.29-66.24Q7.82-66.24 14.44-65.09Q21.07-63.94 23.78-62.51Q26.50-61.09 26.50-59.71L26.50-59.71Q26.50-54.92 24.24-49.40Q21.99-43.88 19.87-43.88L19.87-43.88Q19.50-43.88 17.48-44.71L17.48-44.71Q11.41-47.38 7.41-47.38Q3.40-47.38 1.98-46.64Q0.55-45.91 0.55-44.39Q0.55-42.87 2.58-41.91Q4.60-40.94 7.59-40.16Q10.58-39.38 14.12-37.77Q17.66-36.16 20.70-33.99Q23.74-31.83 25.76-27.88Q27.78-23.92 27.78-18.68L27.78-18.68Q27.78-13.16 24.93-8.65L24.93-8.65Q23.18-5.89 20.42-3.86Z" fill="#C62828"/></g><g transform="translate(257.74,755.43) rotate(46.25)"><path d="M-0.36 0L-0.36 0L-13.58 0Q-16.32 0-17.28-0.39Q-18.23-0.78-18.23-1.68L-18.23-1.68L-18.23-37.02Q-18.23-38.47-17.00-39.12Q-15.76-39.76-12.74-39.76L-12.74-39.76L-0.14-39.76Q10.61-39.76 14.70-35.53Q18.79-31.30 18.79-20.16Q18.79-9.02 14.53-4.51Q10.28 0-0.36 0ZM-0.81-31.42L-0.81-31.42Q-2.16-31.42-2.60-31.19L-2.60-31.19L-2.60-8.57L-0.48-8.34Q1.20-8.34 2.07-11.03Q2.94-13.72 2.94-20.33Q2.94-26.94 2.04-29.18Q1.15-31.42-0.81-31.42Z" fill="#2B2620"/></g><g transform="translate(288.20,783.69) rotate(39.48)"><path d="M7.81-1.34Q7.81-0.73 4.40-0.36Q0.98 0-2.46 0Q-5.91 0-6.86-0.31Q-7.81-0.62-7.81-1.34L-7.81-1.34L-7.81-36.18Q-7.81-37.41-4.56-38.61Q-1.32-39.82 2.72-39.82L2.72-39.82Q6.30-39.82 7.42-38.30L7.42-38.30Q7.81-37.74 7.81-37.18L7.81-37.18L7.81-1.34Z" fill="#2B2620"/></g><g transform="translate(317.39,805.31) rotate(33.56)"><path d="M12.26 0L-8.29 0Q-11.09 0-12.04-0.31Q-12.99-0.62-12.99-1.34L-12.99-1.34L-12.99-36.18Q-12.99-37.41-9.74-38.61Q-6.50-39.82-2.46-39.82L-2.46-39.82Q1.12-39.82 2.24-38.30L2.24-38.30Q2.63-37.74 2.63-37.18L2.63-37.18L2.63-12.38Q9.46-12.82 12.94-12.82L12.94-12.82Q14.11-12.82 14.11-9.10Q14.11-5.38 13.61-2.69Q13.10 0 12.26 0L12.26 0Z" fill="#2B2620"/></g><g transform="translate(353.27,826.18) rotate(26.80)"><path d="M12.26 0L-8.29 0Q-11.09 0-12.04-0.31Q-12.99-0.62-12.99-1.34L-12.99-1.34L-12.99-36.18Q-12.99-37.41-9.74-38.61Q-6.50-39.82-2.46-39.82L-2.46-39.82Q1.12-39.82 2.24-38.30L2.24-38.30Q2.63-37.74 2.63-37.18L2.63-37.18L2.63-12.38Q9.46-12.82 12.94-12.82L12.94-12.82Q14.11-12.82 14.11-9.10Q14.11-5.38 13.61-2.69Q13.10 0 12.26 0L12.26 0Z" fill="#2B2620"/></g><g transform="translate(386.49,840.86) rotate(20.89)"><path d="M7.81-1.34Q7.81-0.73 4.40-0.36Q0.98 0-2.46 0Q-5.91 0-6.86-0.31Q-7.81-0.62-7.81-1.34L-7.81-1.34L-7.81-36.18Q-7.81-37.41-4.56-38.61Q-1.32-39.82 2.72-39.82L2.72-39.82Q6.30-39.82 7.42-38.30L7.42-38.30Q7.81-37.74 7.81-37.18L7.81-37.18L7.81-1.34Z" fill="#2B2620"/></g><g transform="translate(448.63,858.25) rotate(10.37)"><path d="M-1.99-1.74Q-1.99-1.01-5.43-0.56Q-8.88-0.11-12.29-0.11Q-15.71-0.11-16.66-0.50Q-17.61-0.90-17.61-1.74L-17.61-1.74L-17.61-36.06Q-17.61-37.52-14.45-38.64Q-11.28-39.76-7.14-39.76L-7.14-39.76Q-3.72-39.76-2.72-38.42L-2.72-38.42Q-1.99-37.46-1.99-36.68L-1.99-36.68L-1.99-27.44L-1.54-27.44Q-1.54-27.72 0.14-32.09L0.14-32.09Q3.33-40.32 4.79-40.32L4.79-40.32Q7.53-40.32 12.52-38.70L12.52-38.70Q14.92-37.91 16.66-36.43Q18.40-34.94 18.40-33.15L18.40-33.15Q18.40-32.03 16.13-28.81Q13.86-25.59 9.27-20.22L9.27-20.22Q10.33-19.10 11.96-17.36Q13.58-15.62 16.30-12.18Q19.01-8.74 19.01-7.28Q19.01-5.82 16.38-3.89Q13.75-1.96 10.78-0.76Q7.81 0.45 6.36 0.45L6.36 0.45Q5.40 0.45 3.75-2.44Q2.10-5.32-0.25-11.09L-0.25-11.09L-1.99-9.02L-1.99-1.74Z" fill="#2B2620"/></g><g transform="translate(499.86,863.79) rotate(1.98)"><path d="M-2.97-2.86Q-3.08-1.23-4.68-0.62Q-6.27 0-10.42 0Q-14.56 0-17.33-0.76Q-20.10-1.51-20.10-2.69L-20.10-2.69Q-20.10-4.03-15.12-19.85Q-10.14-35.67-9.41-38.08L-9.41-38.08Q-9.13-38.81-4.90-39.28Q-0.67-39.76 4.17-39.76Q9.02-39.76 9.52-38.08L9.52-38.08Q20.10-2.91 20.10-2.35Q20.10-1.79 19.43-1.23L19.43-1.23Q17.86 0 13.22 0L13.22 0Q3.30 0 3.08-2.35L3.08-2.35L2.69-5.99L-2.69-5.99L-2.97-2.86ZM-1.51-16.63L1.51-16.63L0.67-26.71L-0.56-26.71L-1.51-16.63Z" fill="#2B2620"/></g><g transform="translate(573.24,858.63) rotate(-10.02)"><path d="M12.43-2.35Q10.75-1.12 7.76-0.31Q4.76 0.50 0.03 0.50Q-4.70 0.50-8.96-0.28Q-13.22-1.06-15.06-2.02Q-16.91-2.97-16.91-3.86L-16.91-3.86Q-16.91-7-16.02-10.39Q-15.12-13.78-13.89-13.78L-13.89-13.78Q-13.66-13.78-9.24-12.26Q-4.82-10.75-2.58-10.75Q-0.34-10.75 0.34-11.23Q1.01-11.70 1.01-12.60Q1.01-13.50-0.22-14.20Q-1.46-14.90-3.30-15.43Q-5.15-15.96-7.31-16.97Q-9.46-17.98-11.31-19.21Q-13.16-20.44-14.39-22.71Q-15.62-24.98-15.62-27.89L-15.62-27.89Q-15.62-40.32-0.78-40.32L-0.78-40.32Q4.76-40.32 8.79-39.62Q12.82-38.92 14.48-38.05Q16.13-37.18 16.13-36.34L16.13-36.34Q16.13-33.43 14.76-30.07Q13.38-26.71 12.10-26.71L12.10-26.71Q11.87-26.71 10.64-27.22L10.64-27.22Q6.94-28.84 4.51-28.84Q2.07-28.84 1.20-28.39Q0.34-27.94 0.34-27.02Q0.34-26.10 1.57-25.51Q2.80-24.92 4.62-24.44Q6.44-23.97 8.60-22.99Q10.75-22.01 12.60-20.69Q14.45-19.38 15.68-16.97Q16.91-14.56 16.91-11.37L16.91-11.37Q16.91-8.01 15.18-5.26L15.18-5.26Q14.11-3.58 12.43-2.35Z" fill="#2B2620"/></g><g transform="translate(629.10,843.95) rotate(-19.43)"><path d="M-10.81 0L-10.81 0Q-13.50 0-14.34-0.39Q-15.18-0.78-15.51-1.74L-15.51-1.74L-27.89-35.90Q-27.89-36.96-23.88-38.36Q-19.88-39.76-15.79-39.76L-15.79-39.76Q-10.53-39.76-10.19-36.46L-10.19-36.46L-8.29-18.70L-7.50-18.70L-5.94-36.46Q-5.66-39.76 1.62-39.76L1.62-39.76Q4.42-39.76 5.38-39.00Q6.33-38.25 6.44-37.02L6.44-37.02L8.29-18.70L9.07-18.70L10.53-36.46Q10.70-38.08 14.36-38.92Q18.03-39.76 21.64-39.76Q25.26-39.76 26.57-38.70Q27.89-37.63 27.89-36.46L27.89-36.46L15.90-1.74Q15.29 0 7.62 0L7.62 0Q5.32 0 4.54-0.39Q3.75-0.78 3.47-1.74L3.47-1.74L0.56-11.48L-0.11-11.48L-3.08-1.74Q-3.58 0-10.81 0Z" fill="#2B2620"/></g><g transform="translate(683.86,819.19) rotate(-29.22)"><path d="M-2.97-2.86Q-3.08-1.23-4.68-0.62Q-6.27 0-10.42 0Q-14.56 0-17.33-0.76Q-20.10-1.51-20.10-2.69L-20.10-2.69Q-20.10-4.03-15.12-19.85Q-10.14-35.67-9.41-38.08L-9.41-38.08Q-9.13-38.81-4.90-39.28Q-0.67-39.76 4.17-39.76Q9.02-39.76 9.52-38.08L9.52-38.08Q20.10-2.91 20.10-2.35Q20.10-1.79 19.43-1.23L19.43-1.23Q17.86 0 13.22 0L13.22 0Q3.30 0 3.08-2.35L3.08-2.35L2.69-5.99L-2.69-5.99L-2.97-2.86ZM-1.51-16.63L1.51-16.63L0.67-26.71L-0.56-26.71L-1.51-16.63Z" fill="#2B2620"/></g><g transform="translate(727.51,790.32) rotate(-37.75)"><path d="M-2.97-2.86Q-3.08-1.23-4.68-0.62Q-6.27 0-10.42 0Q-14.56 0-17.33-0.76Q-20.10-1.51-20.10-2.69L-20.10-2.69Q-20.10-4.03-15.12-19.85Q-10.14-35.67-9.41-38.08L-9.41-38.08Q-9.13-38.81-4.90-39.28Q-0.67-39.76 4.17-39.76Q9.02-39.76 9.52-38.08L9.52-38.08Q20.10-2.91 20.10-2.35Q20.10-1.79 19.43-1.23L19.43-1.23Q17.86 0 13.22 0L13.22 0Q3.30 0 3.08-2.35L3.08-2.35L2.69-5.99L-2.69-5.99L-2.97-2.86ZM-1.51-16.63L1.51-16.63L0.67-26.71L-0.56-26.71L-1.51-16.63Z" fill="#2B2620"/></g><g transform="translate(766.26,755.43) rotate(-46.25)"><path d="M-0.36 0L-0.36 0L-13.58 0Q-16.32 0-17.28-0.39Q-18.23-0.78-18.23-1.68L-18.23-1.68L-18.23-37.02Q-18.23-38.47-17.00-39.12Q-15.76-39.76-12.74-39.76L-12.74-39.76L-0.14-39.76Q10.61-39.76 14.70-35.53Q18.79-31.30 18.79-20.16Q18.79-9.02 14.53-4.51Q10.28 0-0.36 0ZM-0.81-31.42L-0.81-31.42Q-2.16-31.42-2.60-31.19L-2.60-31.19L-2.60-8.57L-0.48-8.34Q1.20-8.34 2.07-11.03Q2.94-13.72 2.94-20.33Q2.94-26.94 2.04-29.18Q1.15-31.42-0.81-31.42Z" fill="#2B2620"/></g><g transform="translate(640,424) rotate(-36)"><rect x="-150" y="-6.5" width="300" height="13" rx="6.5" fill="#2B2620"/></g><g transform="translate(670,446) rotate(-36)"><rect x="-150" y="-6.5" width="300" height="13" rx="6.5" fill="#2B2620"/></g><path d="M 502 460 c -19.2 -21.599999999999998, 19.2 -40.800000000000004, 0 -67.2 c -14.399999999999999 -19.2, 9.6 -36, 0 -52.8" fill="none" stroke="#2B2620" stroke-width="13" stroke-linecap="round"/><path d="M 428 478 c -13.44 -15.12, 13.44 -28.560000000000002, 0 -47.040000000000006 c -10.08 -13.44, 6.72 -25.2, 0 -36.96" fill="none" stroke="#2B2620" stroke-width="12" stroke-linecap="round"/><path d="M 576 470 c -15.36 -17.28, 15.36 -32.64, 0 -53.760000000000005 c -11.52 -15.36, 7.68 -28.799999999999997, 0 -42.24" fill="none" stroke="#2B2620" stroke-width="12" stroke-linecap="round"/><path d="M 350 552
        a 33 30 0 0 1 54 -18 a 33 30 0 0 1 56 -6 a 33 30 0 0 1 56 6 a 33 30 0 0 1 54 18 Z"
        fill="#FFF6E3" stroke="#2B2620" stroke-width="9" stroke-linejoin="round"/><path d="M 366 556 q -16 40 6 58" fill="none" stroke="#FFF6E3" stroke-width="13" stroke-linecap="round"/><path d="M 654 556 q 18 36 -2 56" fill="none" stroke="#FFF6E3" stroke-width="13" stroke-linecap="round"/><path d="M 340 552 A 172 138 0 0 0 684 552 Z"
        fill="#C62828" stroke="#2B2620" stroke-width="9" stroke-linejoin="round"/><rect x="466" y="687" width="92" height="26" rx="9" fill="#C62828" stroke="#2B2620" stroke-width="8"/><circle cx="448" cy="608" r="24" fill="#FFF6E3"/><circle cx="454" cy="606" r="11" fill="#2B2620"/><path d="M 548 608 q 26 -22 52 0" fill="none" stroke="#FFF6E3" stroke-width="11" stroke-linecap="round"/><path d="M 474 654 q 38 32 76 0" fill="none" stroke="#FFF6E3" stroke-width="11" stroke-linecap="round"/></svg>