<svg xmlns="http://www.w3.org/2000/svg" viewBox="-0.9 -89.7 517.5 93.5"><g fill="#F7EEDD"><path transform="translate(0.00,0) scale(0.048828,-0.048828)" d="M496 -16Q255 -16 148.5 104.0Q42 224 42 486V658H390V438Q390 377 408.5 342.5Q427 308 473 308Q521 308 539.5 336.0Q558 364 558 428Q558 509 542.0 563.5Q526 618 486.5 667.5Q447 717 377 783L219 933Q42 1100 42 1315Q42 1540 146.5 1658.0Q251 1776 449 1776Q691 1776 792.5 1647.0Q894 1518 894 1255H536V1376Q536 1412 515.5 1432.0Q495 1452 460 1452Q418 1452 398.5 1428.5Q379 1405 379 1368Q379 1331 399.0 1288.0Q419 1245 478 1189L681 994Q742 936 793.0 871.5Q844 807 875.0 721.5Q906 636 906 513Q906 265 814.5 124.5Q723 -16 496 -16Z"/><path transform="translate(46.14,0) scale(0.048828,-0.048828)" d="M229 0V1422H20V1760H790V1422H581V0Z"/><path transform="translate(85.69,0) scale(0.048828,-0.048828)" d="M78 0V1760H782V1420H436V1077H768V746H436V343H805V0Z"/><path transform="translate(126.86,0) scale(0.048828,-0.048828)" d="M30 0 200 1760H797L964 0H631L606 284H394L372 0ZM419 565H579L502 1460H486Z"/><path transform="translate(175.39,0) scale(0.048828,-0.048828)" d="M78 0V1760H614L762 687L909 1760H1450V0H1128V1268L926 0H610L396 1268V0Z"/><path transform="translate(250.00,0) scale(0.048828,-0.048828)" d="M291 0V579L10 1760H359L457 1164L555 1760H903L623 579V0Z"/><path transform="translate(318.07,0) scale(0.048828,-0.048828)" d="M78 0V1760H555Q747 1760 834.5 1666.5Q922 1573 922 1358V1281Q922 1157 877.5 1080.0Q833 1003 742 979Q861 949 901.5 838.5Q942 728 942 569Q942 398 910.0 270.0Q878 142 794.0 71.0Q710 0 555 0ZM422 1097H494Q543 1097 557.0 1135.0Q571 1173 571 1226V1403Q571 1488 496 1488H422ZM457 310Q594 310 594 440V660Q594 735 571.5 778.5Q549 822 487 822H422V312Q444 310 457 310Z"/><path transform="translate(365.92,0) scale(0.048828,-0.048828)" d="M62 0V1760H402V0Z"/><path transform="translate(388.57,0) scale(0.048828,-0.048828)" d="M229 0V1422H20V1760H790V1422H581V0Z"/><path transform="translate(428.12,0) scale(0.048828,-0.048828)" d="M78 0V1760H782V1420H436V1077H768V746H436V343H805V0Z"/><path transform="translate(469.29,0) scale(0.048828,-0.048828)" d="M496 -16Q255 -16 148.5 104.0Q42 224 42 486V658H390V438Q390 377 408.5 342.5Q427 308 473 308Q521 308 539.5 336.0Q558 364 558 428Q558 509 542.0 563.5Q526 618 486.5 667.5Q447 717 377 783L219 933Q42 1100 42 1315Q42 1540 146.5 1658.0Q251 1776 449 1776Q691 1776 792.5 1647.0Q894 1518 894 1255H536V1376Q536 1412 515.5 1432.0Q495 1452 460 1452Q418 1452 398.5 1428.5Q379 1405 379 1368Q379 1331 399.0 1288.0Q419 1245 478 1189L681 994Q742 936 793.0 871.5Q844 807 875.0 721.5Q906 636 906 513Q906 265 814.5 124.5Q723 -16 496 -16Z"/></g></svg>